<svg width="663" height="562" viewBox="0 0 663 562" fill="none" xmlns="http://www.w3.org/2000/svg">
<path opacity="0.5" d="M358.882 101.733C278.826 108.055 188.713 170.196 126.59 196.666C104.967 205.874 79.1494 211.812 62.2457 224.551C23.4784 253.682 42.7574 309.257 78.3884 356.053C95.3768 378.373 116.515 400.808 145.624 418.034C305.898 500.879 419.73 481.652 451.708 474.981C457.547 473.763 463.336 472.65 469.082 471.052C496.51 463.422 581.08 433.803 602.539 354.253C628.258 258.91 558.829 185 516.712 147.615C474.595 110.229 395.529 98.8377 358.882 101.733Z" fill="#E7ECFF"/>
<path d="M347.573 309.572H117.49V317.723H347.573V309.572Z" fill="#D0D5DB"/>
<path d="M217.261 317.723H127.671V440.806H217.261V317.723Z" fill="#D0D5DB"/>
<path d="M334.134 317.723H293.819V440.806H334.134V317.723Z" fill="#B2B6BB"/>
<path opacity="0.1" d="M152.51 317.723H127.671V441.214H152.51V317.723Z" fill="black"/>
<path opacity="0.2" d="M217.261 317.723H127.671V321.798H217.261V317.723Z" fill="black"/>
<path opacity="0.2" d="M334.134 317.723H293.819V321.798H334.134V317.723Z" fill="black"/>
<path opacity="0.1" d="M327.619 317.723H293.819V441.214H327.619V317.723Z" fill="#FFF9F9"/>
<path d="M287.386 240.058H205.896C205.143 240.058 204.533 240.669 204.533 241.422V293.871C204.533 294.624 205.143 295.235 205.896 295.235H287.386C288.139 295.235 288.749 294.624 288.749 293.871V241.422C288.749 240.669 288.139 240.058 287.386 240.058Z" fill="#868A91"/>
<path opacity="0.2" d="M287.386 240.058H205.896C205.143 240.058 204.533 240.669 204.533 241.422V293.871C204.533 294.624 205.143 295.235 205.896 295.235H287.386C288.139 295.235 288.749 294.624 288.749 293.871V241.422C288.749 240.669 288.139 240.058 287.386 240.058Z" fill="black"/>
<path d="M289.556 240.058H208.066C207.314 240.058 206.703 240.669 206.703 241.422V293.871C206.703 294.624 207.314 295.235 208.066 295.235H289.556C290.309 295.235 290.919 294.624 290.919 293.871V241.422C290.919 240.669 290.309 240.058 289.556 240.058Z" fill="#868A91"/>
<path d="M256.999 273.077H241.927C241.174 273.077 240.563 273.688 240.563 274.441V308.208C240.563 308.961 241.174 309.572 241.927 309.572H256.999C257.751 309.572 258.362 308.961 258.362 308.208V274.441C258.362 273.688 257.751 273.077 256.999 273.077Z" fill="#868A91"/>
<path opacity="0.2" d="M256.999 273.077H241.927C241.174 273.077 240.563 273.688 240.563 274.441V308.208C240.563 308.961 241.174 309.572 241.927 309.572H256.999C257.751 309.572 258.362 308.961 258.362 308.208V274.441C258.362 273.688 257.751 273.077 256.999 273.077Z" fill="black"/>
<path d="M268.928 305.228H227.827C227.611 305.227 227.398 305.287 227.214 305.4C227.03 305.514 226.881 305.677 226.785 305.871L224.936 309.572H271.819L269.97 305.871C269.873 305.677 269.724 305.514 269.54 305.4C269.356 305.287 269.144 305.227 268.928 305.228Z" fill="#868A91"/>
<path opacity="0.2" d="M268.928 305.228H227.827C227.611 305.227 227.398 305.287 227.214 305.4C227.03 305.514 226.881 305.677 226.785 305.871L224.936 309.572H271.819L269.97 305.871C269.873 305.677 269.724 305.514 269.54 305.4C269.356 305.287 269.144 305.227 268.928 305.228Z" fill="black"/>
<path d="M256.999 273.077H244.097C243.344 273.077 242.734 273.688 242.734 274.441V308.208C242.734 308.961 243.344 309.572 244.097 309.572H256.999C257.751 309.572 258.362 308.961 258.362 308.208V274.441C258.362 273.688 257.751 273.077 256.999 273.077Z" fill="#B2B6BB"/>
<path d="M271.098 305.228H229.997C229.781 305.227 229.569 305.287 229.385 305.4C229.201 305.514 229.052 305.677 228.955 305.871L227.106 309.572H273.989L272.14 305.871C272.044 305.677 271.895 305.514 271.711 305.4C271.527 305.287 271.314 305.227 271.098 305.228Z" fill="#868A91"/>
<path fill-rule="evenodd" clip-rule="evenodd" d="M508.528 141H474.272V271.34H571.35V207.358C553.846 182.456 533.189 162.24 516.712 147.615C514.118 145.312 511.384 143.108 508.528 141Z" fill="#B2B6BB"/>
<path opacity="0.2" fill-rule="evenodd" clip-rule="evenodd" d="M508.528 141H474.272V271.34H571.35V207.358C553.846 182.456 533.189 162.24 516.712 147.615C514.118 145.312 511.384 143.108 508.528 141Z" fill="black"/>
<path fill-rule="evenodd" clip-rule="evenodd" d="M508.528 141H472.375V271.34H567.878V202.532C551.162 179.836 532.111 161.284 516.712 147.615C514.118 145.312 511.384 143.108 508.528 141Z" fill="#6F7CB2"/>
<path fill-rule="evenodd" clip-rule="evenodd" d="M514.59 145.778H476.716V266.56H563.536V196.794C547.927 176.695 530.793 160.113 516.712 147.615C516.015 146.995 515.307 146.383 514.59 145.778Z" fill="#F3F3F3"/>
<path d="M476.716 198.67L505.74 145.778H546.78L476.716 254.734V198.67Z" fill="white"/>
<path d="M563.537 176.847L558.779 165.564L492.713 266.56H516.727L563.537 192.67V176.847Z" fill="white"/>
<path d="M479.755 145.778H476.716V266.56H479.755V145.778Z" fill="#B2B6BB"/>
<path opacity="0.2" d="M479.755 145.778H476.716V266.56H479.755V145.778Z" fill="black"/>
<path fill-rule="evenodd" clip-rule="evenodd" d="M541.121 170.978H472.375V176.191H546.032C544.392 174.415 542.753 172.677 541.121 170.978Z" fill="#6F7CB2"/>
<path d="M526.204 290.89C525.696 290.897 525.196 291.017 524.741 291.243C524.28 291.468 523.881 291.793 523.569 292.194C519.301 297.685 518.437 309.273 520.196 312.275C522.271 315.816 520.13 317.089 520.63 320.291C521.033 322.898 524.684 324.861 526.043 325.504C526.199 325.581 526.373 325.621 526.547 325.621C526.72 325.621 526.894 325.581 527.05 325.504C528.452 324.831 532.324 322.736 532.654 320.108C533.058 316.893 530.879 315.685 532.845 312.084C534.512 309.042 533.301 297.477 528.869 292.098C528.543 291.71 528.135 291.4 527.675 291.191C527.211 290.982 526.711 290.879 526.204 290.89Z" fill="#37447E"/>
<path opacity="0.3" d="M526.204 290.89C525.696 290.897 525.196 291.017 524.741 291.243C524.28 291.468 523.881 291.793 523.569 292.194C519.301 297.685 518.437 309.273 520.196 312.275C522.271 315.816 520.13 317.089 520.63 320.291C521.033 322.898 524.684 324.861 526.043 325.504C526.199 325.581 526.373 325.621 526.547 325.621C526.72 325.621 526.894 325.581 527.05 325.504C528.452 324.831 532.324 322.736 532.654 320.108C533.058 316.893 530.879 315.685 532.845 312.084C534.512 309.042 533.301 297.477 528.869 292.098C528.543 291.71 528.135 291.4 527.675 291.191C527.211 290.982 526.711 290.879 526.204 290.89Z" fill="white"/>
<path d="M556.369 322.467C555.987 322.133 555.536 321.889 555.05 321.753C554.564 321.617 554.051 321.592 553.552 321.681C546.715 322.958 538.398 331.061 537.725 334.48C536.935 338.508 534.486 338.039 532.741 340.767C531.322 342.983 532.741 346.88 533.336 348.266C533.405 348.427 533.51 348.57 533.64 348.685C533.77 348.8 533.926 348.884 534.096 348.931C535.593 349.365 539.878 350.356 541.866 348.609C544.297 346.467 543.464 344.117 547.323 342.727C550.596 341.545 557.342 332.091 557.572 325.135C557.585 324.629 557.481 324.126 557.272 323.664C557.064 323.203 556.756 322.793 556.369 322.467Z" fill="#37447E"/>
<path d="M495.126 329.928C494.801 330.195 494.54 330.533 494.366 330.915C494.189 331.297 494.097 331.713 494.106 332.135C494.241 337.922 499.775 345.842 502.489 346.85C505.688 348.04 504.976 349.987 506.977 351.785C508.609 353.249 511.995 352.598 513.211 352.298C513.35 352.263 513.48 352.198 513.593 352.106C513.706 352.015 513.797 351.899 513.858 351.768C514.409 350.59 515.802 347.206 514.63 345.338C513.202 343.053 511.158 343.426 510.537 340.068C510.007 337.222 503.157 330.414 497.479 329.293C497.062 329.216 496.637 329.232 496.229 329.342C495.821 329.452 495.447 329.652 495.126 329.928Z" fill="#37447E"/>
<path d="M546.55 342.857C546.251 342.644 545.912 342.5 545.552 342.437C545.187 342.374 544.818 342.393 544.466 342.492C539.63 343.9 534.213 350.334 533.97 352.841C533.688 355.8 531.89 355.639 530.827 357.729C529.959 359.427 531.261 362.134 531.791 363.09C531.851 363.203 531.934 363.301 532.034 363.376C532.138 363.451 532.255 363.502 532.381 363.525C533.492 363.724 536.653 364.141 537.959 362.738C539.557 361 538.793 359.388 541.471 358.111C543.746 357.029 547.935 349.734 547.609 344.704C547.583 344.337 547.47 343.982 547.288 343.664C547.106 343.346 546.854 343.073 546.55 342.866" fill="#37447E"/>
<path d="M510.385 308.203C509.981 308.328 509.612 308.541 509.304 308.828C508.991 309.114 508.753 309.466 508.596 309.859C506.521 315.259 508.622 324.691 510.767 326.659C513.272 328.979 511.874 330.504 513.042 332.933C513.988 334.906 517.383 335.596 518.607 335.787C518.75 335.809 518.898 335.798 519.037 335.755C519.175 335.712 519.301 335.638 519.41 335.54C520.365 334.671 522.939 332.064 522.57 329.892C522.136 327.233 520.091 326.798 520.79 323.458C521.385 320.62 517.639 311.727 512.82 308.516C512.469 308.286 512.065 308.139 511.648 308.085C511.231 308.03 510.806 308.071 510.407 308.203" fill="#37447E"/>
<path d="M543.976 309.477C543.607 309.278 543.194 309.167 542.773 309.15C542.352 309.134 541.931 309.213 541.545 309.381C536.257 311.732 531.083 319.887 531.196 322.78C531.326 326.195 529.255 326.286 528.365 328.828C527.645 330.896 529.551 333.776 530.289 334.784C530.375 334.901 530.488 334.997 530.614 335.065C530.744 335.133 530.888 335.17 531.031 335.175C532.333 335.232 535.984 335.219 537.256 333.438C538.814 331.239 537.69 329.497 540.542 327.629C542.964 326.043 546.62 317.093 545.465 311.419C545.378 311.007 545.196 310.62 544.94 310.287C544.683 309.954 544.354 309.683 543.976 309.494" fill="#37447E"/>
<path opacity="0.3" d="M510.385 308.203C509.981 308.328 509.612 308.541 509.304 308.828C508.991 309.114 508.753 309.466 508.596 309.859C506.521 315.259 508.622 324.691 510.767 326.659C513.272 328.979 511.874 330.504 513.042 332.933C513.988 334.906 517.383 335.596 518.607 335.787C518.75 335.809 518.898 335.798 519.037 335.755C519.175 335.712 519.301 335.638 519.41 335.54C520.365 334.671 522.939 332.064 522.57 329.892C522.136 327.233 520.091 326.798 520.79 323.458C521.385 320.62 517.639 311.727 512.82 308.516C512.469 308.286 512.065 308.139 511.648 308.085C511.231 308.03 510.806 308.071 510.407 308.203" fill="white"/>
<path opacity="0.3" d="M543.976 309.477C543.607 309.278 543.194 309.167 542.773 309.15C542.352 309.134 541.931 309.213 541.545 309.381C536.257 311.732 531.083 319.887 531.196 322.78C531.326 326.195 529.255 326.286 528.365 328.828C527.645 330.896 529.551 333.776 530.289 334.784C530.375 334.901 530.488 334.997 530.614 335.065C530.744 335.133 530.888 335.17 531.031 335.175C532.333 335.232 535.984 335.219 537.256 333.438C538.814 331.239 537.69 329.497 540.542 327.629C542.964 326.043 546.62 317.093 545.465 311.419C545.378 311.007 545.196 310.62 544.94 310.287C544.683 309.954 544.354 309.683 543.976 309.494" fill="white"/>
<path d="M525.274 310.741C524.853 310.727 524.432 310.807 524.046 310.978C523.66 311.147 523.317 311.403 523.043 311.723C519.323 316.155 518.242 325.757 519.609 328.307C521.22 331.318 519.401 332.304 519.714 334.98C519.97 337.153 522.943 338.89 524.055 339.494C524.185 339.561 524.324 339.597 524.471 339.602C524.615 339.606 524.758 339.579 524.892 339.52C526.078 339.003 529.364 337.383 529.72 335.211C530.154 332.552 528.383 331.479 530.154 328.55C531.634 326.061 530.996 316.42 527.48 311.823C527.224 311.492 526.894 311.222 526.516 311.035C526.143 310.848 525.73 310.748 525.309 310.741" fill="#37447E"/>
<path d="M509.786 353.961C509.512 354.15 509.287 354.397 509.122 354.685C508.957 354.973 508.861 355.294 508.839 355.625C508.57 360.161 512.386 366.709 514.439 367.673C516.862 368.807 516.176 370.28 517.634 371.822C518.811 373.069 521.502 372.778 522.47 372.626C522.583 372.608 522.687 372.564 522.783 372.5C522.878 372.435 522.957 372.351 523.013 372.252C523.516 371.384 524.823 368.811 524.033 367.273C523.061 365.396 521.428 365.535 521.172 362.889C520.938 360.63 516.024 354.865 511.657 353.622C511.34 353.535 511.006 353.521 510.68 353.581C510.354 353.64 510.051 353.772 509.781 353.966" fill="#37447E"/>
<path opacity="0.3" d="M546.55 342.857C546.251 342.644 545.912 342.5 545.552 342.437C545.187 342.374 544.818 342.393 544.466 342.492C539.63 343.9 534.213 350.334 533.97 352.841C533.688 355.8 531.89 355.639 530.827 357.729C529.959 359.427 531.261 362.134 531.791 363.09C531.851 363.203 531.934 363.301 532.034 363.376C532.138 363.451 532.255 363.502 532.381 363.525C533.492 363.724 536.653 364.141 537.959 362.738C539.557 361 538.793 359.388 541.471 358.111C543.746 357.029 547.935 349.734 547.609 344.704C547.583 344.337 547.47 343.982 547.288 343.664C547.106 343.346 546.854 343.073 546.55 342.866" fill="black"/>
<path opacity="0.3" d="M525.274 310.741C524.853 310.727 524.432 310.807 524.046 310.978C523.66 311.147 523.317 311.403 523.043 311.723C519.323 316.155 518.242 325.757 519.609 328.307C521.22 331.318 519.401 332.304 519.714 334.98C519.97 337.153 522.943 338.89 524.055 339.494C524.185 339.561 524.324 339.597 524.471 339.602C524.615 339.606 524.758 339.579 524.892 339.52C526.078 339.003 529.364 337.383 529.72 335.211C530.154 332.552 528.383 331.479 530.154 328.55C531.634 326.061 530.996 316.42 527.48 311.823C527.224 311.492 526.894 311.222 526.516 311.035C526.143 310.848 525.73 310.748 525.309 310.741" fill="black"/>
<path opacity="0.3" d="M509.786 353.961C509.512 354.15 509.287 354.397 509.122 354.685C508.957 354.973 508.861 355.294 508.839 355.625C508.57 360.161 512.386 366.709 514.439 367.673C516.862 368.807 516.176 370.28 517.634 371.822C518.811 373.069 521.502 372.778 522.47 372.626C522.583 372.608 522.687 372.564 522.783 372.5C522.878 372.435 522.957 372.351 523.013 372.252C523.516 371.384 524.823 368.811 524.033 367.273C523.061 365.396 521.428 365.535 521.172 362.889C520.938 360.63 516.024 354.865 511.657 353.622C511.34 353.535 511.006 353.521 510.68 353.581C510.354 353.64 510.051 353.772 509.781 353.966" fill="black"/>
<path d="M526.043 378.913L525.704 378.813C525.787 378.535 534.048 351.242 546.598 343.547L546.78 343.852C534.347 351.476 526.125 378.64 526.043 378.913Z" fill="#37447E"/>
<path d="M525.513 378.904C524.376 371.914 510.32 355.204 510.159 355.035L510.433 354.809C511.014 355.495 524.715 371.753 525.865 378.848L525.513 378.904Z" fill="#37447E"/>
<path d="M525.956 378.878L525.6 378.835L527.259 364.497C528.166 356.395 531.639 348.794 537.16 342.8L555.458 323.028L555.718 323.271L537.421 343.026C531.951 348.964 528.513 356.493 527.614 364.519L525.956 378.878Z" fill="#37447E"/>
<path d="M525.457 378.925C525.366 378.596 515.985 345.681 495.743 330.7L495.955 330.413C516.293 345.476 525.709 378.504 525.8 378.839L525.457 378.925Z" fill="#37447E"/>
<path d="M525.188 312.42L524.832 312.424L525.618 378.875L525.973 378.871L525.188 312.42Z" fill="#37447E"/>
<path d="M525.422 357.329C525.071 336.261 543.22 310.406 543.398 310.141L543.689 310.35C543.507 310.606 525.427 336.37 525.778 357.324L525.422 357.329Z" fill="#37447E"/>
<path d="M525.422 358.315C524.988 350.243 510.276 309.529 510.129 309.121L510.463 308.999C510.611 309.407 525.335 350.169 525.778 358.298L525.422 358.315Z" fill="#37447E"/>
<path d="M526.13 291.783L525.774 291.796L526.486 310.765L526.842 310.751L526.13 291.783Z" fill="#37447E"/>
<path d="M510.58 359.66L510.441 359.988L515.781 362.244L515.92 361.916L510.58 359.66Z" fill="#37447E"/>
<path d="M496.58 336.278L496.446 336.608L505.762 340.408L505.896 340.078L496.58 336.278Z" fill="#37447E"/>
<path d="M509.048 314.668L508.766 314.887L514.995 322.842L515.273 322.622L509.048 314.668Z" fill="#37447E"/>
<path d="M528.448 319.719L525.244 331.12L525.587 331.216L528.791 319.815L528.448 319.719Z" fill="#37447E"/>
<path d="M537.043 313.444L535.741 323.005L536.097 323.053L537.395 313.492L537.043 313.444Z" fill="#37447E"/>
<path d="M544.666 335.046L544.323 334.958C545.191 331.505 546.537 326.269 546.572 326.021H546.928C546.928 326.2 545.347 332.382 544.666 335.028" fill="#37447E"/>
<path d="M543.689 351.254L535.741 355.948L535.923 356.255L543.872 351.561L543.689 351.254Z" fill="#37447E"/>
<g opacity="0.2">
<path opacity="0.2" d="M526.043 378.913L525.704 378.813C525.787 378.535 534.048 351.242 546.598 343.548L546.78 343.852C534.347 351.477 526.125 378.64 526.043 378.913Z" fill="black"/>
<path opacity="0.2" d="M525.513 378.905C524.376 371.914 510.32 355.204 510.159 355.035L510.433 354.809C511.014 355.496 524.715 371.753 525.865 378.848L525.513 378.905Z" fill="black"/>
<path opacity="0.2" d="M525.956 378.879L525.6 378.835L527.259 364.498C528.166 356.395 531.639 348.794 537.16 342.801L555.458 323.028L555.718 323.271L537.421 343.026C531.951 348.964 528.513 356.493 527.614 364.519L525.956 378.879Z" fill="black"/>
<path opacity="0.2" d="M525.457 378.926C525.366 378.596 515.985 345.681 495.743 330.7L495.955 330.413C516.293 345.476 525.709 378.505 525.8 378.839L525.457 378.926Z" fill="black"/>
<path opacity="0.2" d="M525.183 312.42L524.827 312.425L525.618 378.876L525.973 378.872L525.183 312.42Z" fill="black"/>
<path opacity="0.2" d="M525.422 357.33C525.071 336.262 543.22 310.407 543.398 310.142L543.689 310.35C543.507 310.607 525.427 336.371 525.778 357.325L525.422 357.33Z" fill="black"/>
<path opacity="0.2" d="M525.422 358.315C524.988 350.243 510.276 309.529 510.129 309.121L510.463 308.999C510.611 309.408 525.335 350.169 525.778 358.298L525.422 358.315Z" fill="black"/>
<path opacity="0.2" d="M526.13 291.783L525.774 291.796L526.486 310.765L526.842 310.751L526.13 291.783Z" fill="black"/>
<path opacity="0.2" d="M510.58 359.66L510.441 359.988L515.781 362.244L515.92 361.916L510.58 359.66Z" fill="black"/>
<path opacity="0.2" d="M496.58 336.278L496.446 336.608L505.762 340.408L505.896 340.078L496.58 336.278Z" fill="black"/>
<path opacity="0.2" d="M509.048 314.668L508.766 314.888L514.995 322.842L515.273 322.623L509.048 314.668Z" fill="black"/>
<path opacity="0.2" d="M528.448 319.719L525.244 331.12L525.583 331.216L528.791 319.816L528.448 319.719Z" fill="black"/>
<path opacity="0.2" d="M537.043 313.444L535.741 323.005L536.097 323.053L537.395 313.492L537.043 313.444Z" fill="black"/>
<path opacity="0.2" d="M544.666 335.046L544.323 334.958C545.191 331.505 546.537 326.269 546.572 326.022H546.928C546.928 326.2 545.348 332.382 544.666 335.028" fill="black"/>
<path opacity="0.2" d="M543.689 351.254L535.741 355.948L535.923 356.255L543.872 351.561L543.689 351.254Z" fill="black"/>
</g>
<path d="M540.837 379.086H511.136C511.066 379.086 511.01 379.143 511.01 379.213V382.002C511.01 382.071 511.066 382.128 511.136 382.128H540.837C540.907 382.128 540.963 382.071 540.963 382.002V379.213C540.963 379.143 540.907 379.086 540.837 379.086Z" fill="#868A91"/>
<path opacity="0.2" d="M540.963 379.086H535.15V382.128H540.963V379.086Z" fill="black"/>
<path d="M536.405 409.065H515.568L512.529 382.128H539.444L536.405 409.065Z" fill="#868A91"/>
<path opacity="0.2" d="M539.444 382.128H512.529V383.431H533.77L531.63 409.065H536.405L539.361 383.431H539.444V382.128Z" fill="black"/>
<g opacity="0.5">
<path opacity="0.5" d="M538.697 389.979H513.311V390.413H538.697V389.979Z" fill="white"/>
</g>
<g opacity="0.5">
<path opacity="0.5" d="M538.359 392.151H513.645V392.585H538.359V392.151Z" fill="white"/>
</g>
<path fill-rule="evenodd" clip-rule="evenodd" d="M540.963 437.628V412.976V409.065V395.597H539.661V409.065H526.204V395.597H524.901V409.065H511.444V395.597H510.142V441.214H511.444V412.976H524.901V441.214H526.204V412.976H539.661V438.529C540.095 438.231 540.529 437.931 540.963 437.628Z" fill="#3F4249"/>
<path d="M410.554 178.25C411.166 178.341 412.468 179.511 413.332 181.37C413.35 181.396 413.366 181.424 413.38 181.452C414.01 182.712 415.407 179.741 415.776 178.602C415.84 178.427 415.941 178.269 416.074 178.139C416.207 178.009 416.367 177.91 416.543 177.85C416.718 177.79 416.905 177.77 417.089 177.792C417.274 177.814 417.451 177.877 417.608 177.977L421.164 180.584L422.297 180.844C422.552 180.993 422.742 181.232 422.83 181.514C422.919 181.796 422.899 182.101 422.774 182.369L419.705 188.187L418.837 191.945L411.166 188.834L412.811 185.224C412.811 184.711 411.943 184.02 411.878 183.321C411.804 182.688 411.62 182.074 411.335 181.504C411.032 180.861 410.66 180.25 410.228 179.684C410.194 179.649 410.155 179.606 410.12 179.576C410.004 179.478 409.921 179.347 409.881 179.201C409.84 179.055 409.845 178.9 409.895 178.757C409.944 178.614 410.035 178.489 410.157 178.398C410.278 178.308 410.424 178.256 410.576 178.25H410.554Z" fill="#956363"/>
<path d="M415.073 167.589C415.073 167.589 418.681 167.589 424.563 164.031C430.445 160.473 434.113 154.786 434.686 154.946C435.259 155.107 438.124 154.49 440.646 166.299C443.168 178.108 440.672 180.159 439.7 179.919C438.727 179.681 432.494 176.335 428.239 175.879C423.985 175.423 418.164 176.387 418.164 176.387L415.073 167.589Z" fill="#5F6EA6"/>
<path d="M406.443 171.787L407.116 174.284L407.416 175.401C407.616 176.139 408.091 176.773 408.743 177.172C409.395 177.57 410.176 177.703 410.923 177.543L418.868 176.626L416.771 165.856L408.523 168.133C407.764 168.344 407.12 168.846 406.731 169.531C406.342 170.215 406.238 171.026 406.443 171.787Z" fill="#3F4249"/>
<path d="M409.89 176.313L411.192 181.448L412.468 181.405L415.542 188.934L419.518 187.431C419.518 187.431 417.725 182.678 417.252 180.875C416.779 179.072 417.825 178.92 417.825 178.92L416.236 176.017L409.89 176.313Z" fill="#3F4249"/>
<path d="M440.182 166.403C441.484 172.79 441.436 178.203 440.034 178.494C438.632 178.785 436.427 173.841 435.107 167.454C433.787 161.068 433.857 155.654 435.259 155.363C436.661 155.072 438.866 160.016 440.182 166.403Z" fill="#3F4249"/>
<path d="M405.414 174.936L407.224 174.692L406.516 172.064L404.81 172.659L405.414 174.936Z" fill="#61656D"/>
<path opacity="0.15" d="M418.98 184.881C418.98 184.881 419.848 187.054 421.884 184.038L422.956 181.974L418.454 184.538L418.98 184.881Z" fill="black"/>
<g opacity="0.3">
<path opacity="0.5" d="M416.766 176.991L410.632 179.211L410.259 177.747L416.766 176.991Z" fill="black"/>
</g>
<path d="M407.771 172.911C407.771 172.985 408.87 172.82 410.189 172.546C411.509 172.273 412.573 171.995 412.56 171.921C411.741 171.959 410.93 172.083 410.137 172.29C409.329 172.413 408.536 172.621 407.771 172.911Z" fill="#61656D"/>
<path d="M408.214 174.558C408.432 174.602 408.656 174.602 408.874 174.558C409.073 174.558 409.308 174.519 409.581 174.488C409.855 174.458 410.132 174.384 410.449 174.319C411.185 174.198 411.903 173.985 412.585 173.684C412.585 173.606 411.587 173.802 410.415 174.063C410.115 174.123 409.833 174.206 409.572 174.249L408.882 174.376C408.457 174.454 408.214 174.519 408.214 174.558Z" fill="#61656D"/>
<path d="M434.747 164.179C434.747 164.179 438.15 162.997 438.884 167.402C439.617 171.808 436.318 171.769 436.318 171.769C435.441 169.325 434.912 166.77 434.747 164.179Z" fill="white"/>
<path opacity="0.3" d="M433.036 158.379C432.997 158.642 432.98 158.908 432.98 159.174C432.98 159.691 432.936 160.438 432.932 161.346C432.963 161.807 432.993 162.311 433.028 162.854C433.028 163.123 433.067 163.405 433.084 163.692C433.084 163.836 433.084 163.983 433.114 164.127C433.145 164.27 433.158 164.422 433.175 164.561L433.462 166.455C433.488 166.62 433.509 166.786 433.536 166.955C433.562 167.124 433.609 167.285 433.644 167.45C433.722 167.785 433.805 168.124 433.883 168.467C433.961 168.81 434.048 169.149 434.126 169.484C434.169 169.649 434.195 169.818 434.252 169.979C434.308 170.14 434.352 170.3 434.404 170.457C434.608 171.091 434.807 171.699 434.998 172.282C435.046 172.425 435.085 172.573 435.142 172.716L435.311 173.125L435.637 173.902C435.849 174.402 436.045 174.867 436.223 175.292C436.657 176.114 436.995 176.77 437.243 177.222C437.36 177.467 437.495 177.704 437.646 177.93C437.564 177.676 437.46 177.43 437.334 177.196C437.104 176.718 436.783 176.048 436.392 175.227L435.836 173.833L435.528 173.059L435.363 172.655C435.311 172.516 435.272 172.368 435.224 172.221C435.042 171.643 434.851 171.035 434.651 170.409C434.603 170.248 434.551 170.092 434.499 169.931C434.447 169.77 434.421 169.605 434.378 169.44C434.3 169.106 434.221 168.771 434.139 168.428C434.056 168.085 433.978 167.755 433.9 167.42C433.865 167.255 433.818 167.094 433.792 166.925L433.714 166.434C433.609 165.782 433.514 165.152 433.418 164.552C433.418 164.405 433.366 164.257 433.349 164.118C433.331 163.979 433.327 163.827 433.314 163.684C433.314 163.397 433.266 163.119 433.245 162.849C433.201 162.311 433.158 161.811 433.119 161.355C433.119 160.443 433.093 159.704 433.084 159.182C433.093 158.914 433.075 158.645 433.036 158.379Z" fill="black"/>
<path d="M418.784 177.495C418.987 177.65 419.123 177.875 419.167 178.127C419.21 178.378 419.157 178.636 419.018 178.85C418.471 179.719 417.594 181.075 416.987 181.892C416.807 182.162 416.577 182.394 416.309 182.578C416.178 182.665 416.026 182.715 415.868 182.722C415.71 182.729 415.554 182.693 415.415 182.618C415.282 182.51 415.182 182.368 415.126 182.207C415.069 182.046 415.058 181.872 415.094 181.705C415.17 181.368 415.308 181.048 415.502 180.762C415.984 179.945 416.778 178.742 417.442 177.764C417.512 177.657 417.603 177.565 417.709 177.494C417.814 177.423 417.934 177.374 418.059 177.351C418.185 177.327 418.314 177.329 418.438 177.357C418.563 177.385 418.681 177.438 418.784 177.512V177.495Z" fill="#956363"/>
<path d="M420.136 178.642C420.338 178.798 420.475 179.024 420.518 179.276C420.562 179.528 420.509 179.787 420.37 180.002C419.823 180.871 418.946 182.222 418.338 183.043C418.157 183.312 417.927 183.545 417.661 183.73C417.529 183.816 417.376 183.865 417.219 183.871C417.061 183.877 416.905 183.84 416.767 183.764C416.634 183.657 416.533 183.515 416.477 183.354C416.42 183.193 416.409 183.019 416.446 182.852C416.521 182.515 416.66 182.195 416.854 181.909C417.34 181.092 418.13 179.889 418.794 178.912C418.864 178.804 418.954 178.712 419.06 178.641C419.166 178.57 419.285 178.521 419.411 178.497C419.536 178.474 419.665 178.476 419.79 178.504C419.914 178.532 420.032 178.585 420.136 178.659V178.642Z" fill="#956363"/>
<path d="M421.151 180.037C421.333 180.167 421.458 180.363 421.499 180.583C421.54 180.803 421.495 181.031 421.372 181.218C420.886 181.966 420.105 183.13 419.566 183.825C419.403 184.058 419.197 184.257 418.959 184.412C418.839 184.489 418.701 184.533 418.559 184.537C418.417 184.542 418.275 184.508 418.151 184.438C418.032 184.347 417.941 184.224 417.888 184.083C417.836 183.942 417.825 183.79 417.856 183.643C417.918 183.35 418.039 183.074 418.212 182.83C418.646 182.127 419.349 181.093 419.949 180.245C420.014 180.152 420.098 180.072 420.194 180.011C420.291 179.95 420.399 179.909 420.511 179.89C420.624 179.87 420.739 179.873 420.85 179.898C420.961 179.924 421.067 179.971 421.16 180.037H421.151Z" fill="#956363"/>
<path d="M422.731 180.788C422.914 180.918 423.041 181.115 423.083 181.336C423.125 181.557 423.08 181.786 422.956 181.975C422.466 182.726 421.685 183.899 421.142 184.581C420.977 184.817 420.769 185.019 420.53 185.177C420.41 185.266 420.265 185.315 420.116 185.317C419.967 185.318 419.82 185.274 419.698 185.188C419.576 185.103 419.484 184.981 419.434 184.84C419.385 184.699 419.381 184.546 419.423 184.403C419.486 184.108 419.609 183.829 419.783 183.582C420.217 182.874 420.925 181.844 421.52 180.975C421.585 180.882 421.669 180.803 421.765 180.741C421.862 180.681 421.969 180.639 422.082 180.62C422.194 180.6 422.31 180.603 422.421 180.628C422.532 180.654 422.637 180.701 422.731 180.766V180.788Z" fill="#956363"/>
<path opacity="0.15" d="M416.809 181.727C416.892 181.787 417.452 181.136 418.068 180.28C418.685 179.424 419.115 178.681 419.032 178.62C418.95 178.559 418.39 179.211 417.778 180.071C417.165 180.931 416.744 181.67 416.809 181.727Z" fill="black"/>
<path opacity="0.15" d="M417.929 183.499C418.012 183.555 418.628 182.799 419.306 181.813C419.983 180.827 420.469 179.975 420.391 179.919C420.313 179.863 419.692 180.618 419.01 181.609C418.329 182.6 417.847 183.447 417.929 183.499Z" fill="black"/>
<path opacity="0.15" d="M419.379 184.034C419.453 184.099 420.082 183.491 420.707 182.617C421.332 181.744 421.701 180.949 421.619 180.88C421.536 180.81 421.029 181.527 420.412 182.383C419.796 183.239 419.305 183.968 419.379 184.034Z" fill="black"/>
<path d="M410.281 189.364L418.603 192.805L419.61 190.29L411.536 186.892L410.281 189.364Z" fill="white"/>
<path d="M368.029 435.293L392.435 435.91L382.702 428.959C381.915 428.404 381.269 427.672 380.817 426.821C380.365 425.971 380.118 425.026 380.097 424.062L379.663 416.316L366.414 416.364L368.029 435.293Z" fill="#956363"/>
<path opacity="0.15" d="M370.738 426.356V426.213C370.691 425.811 370.804 425.406 371.053 425.087C371.301 424.767 371.665 424.558 372.066 424.506L379.993 423.363L379.902 421.842H366.749L367.934 434.768L378.569 433.583L375.057 432.202C373.876 431.712 372.85 430.909 372.089 429.878C371.328 428.848 370.861 427.631 370.738 426.356Z" fill="black"/>
<path d="M324.111 434.816H335.077L337.117 416.234L324.159 416.282L324.111 434.816Z" fill="#956363"/>
<path opacity="0.15" d="M326.863 431.677L327.149 425.979C327.174 425.62 327.318 425.28 327.559 425.013C327.8 424.746 328.123 424.567 328.478 424.506L336.361 423.316L336.548 421.747L324.202 421.795L324.154 434.959L326.863 431.677Z" fill="black"/>
<path d="M325.817 277.249L323.394 422.664H337.642L350.035 298.841C350.076 298.452 350.258 298.092 350.547 297.829C350.836 297.567 351.212 297.42 351.602 297.416C351.99 297.414 352.364 297.56 352.646 297.825C352.929 298.09 353.099 298.454 353.122 298.841L366.318 422.664H380.566L377.306 277.249H325.817Z" fill="#FFC93C"/>
<path opacity="0.2" d="M325.817 277.249L323.394 422.664H337.642L350.035 298.841C350.076 298.452 350.258 298.092 350.547 297.829C350.836 297.567 351.212 297.42 351.602 297.416C351.99 297.414 352.364 297.56 352.646 297.825C352.929 298.09 353.099 298.454 353.122 298.841L366.318 422.664H380.566L377.306 277.249H325.817Z" fill="white"/>
<path d="M323.017 422.664H338.211L338.498 419.575H323.065L323.017 422.664Z" fill="#FFC93C"/>
<path opacity="0.15" d="M323.017 422.664H329.381L329.52 419.575H323.065L323.017 422.664Z" fill="black"/>
<path opacity="0.15" d="M374.867 420.952L360.81 304.002C360.592 302.188 359.718 300.517 358.354 299.303C356.99 298.088 355.231 297.414 353.405 297.407H351.668C352.055 297.405 352.429 297.552 352.711 297.817C352.994 298.082 353.165 298.445 353.188 298.832L366.289 422.007L374.867 420.952Z" fill="black"/>
<path d="M365.989 422.664H381.135L380.896 419.575H365.655L365.989 422.664Z" fill="#5F6EA6"/>
<path opacity="0.15" d="M365.989 422.664H375.01L374.675 419.575H365.655L365.989 422.664Z" fill="black"/>
<path opacity="0.15" d="M325.817 277.248L323.352 419.492L329.477 419.539L332.42 270.8L325.817 277.248Z" fill="black"/>
<path d="M360.953 175.888C362.187 175.819 363.344 175.268 364.175 174.353C365.006 173.438 365.444 172.232 365.394 170.997C365.345 169.761 364.812 168.594 363.91 167.749C363.008 166.903 361.811 166.447 360.576 166.477C360.432 166.477 360.055 166.382 360.098 166.525C361.144 170.613 359.912 175.888 360.953 175.888Z" fill="black"/>
<path d="M339.973 194.561C339.973 194.8 345.86 207.725 350.179 207.916C353.934 208.107 356.304 195.942 356.256 195.704L355.974 189.382V186.102C356.165 185.342 357.064 184.629 357.064 183.634C357.35 179.024 357.871 174.841 357.871 174.841C357.871 174.841 342.821 164.765 341.87 176.504L341.493 178.216L339.973 194.561Z" fill="#956363"/>
<path d="M360.146 161.059C360.146 161.059 365.512 188.765 352.741 190.094C341.68 191.237 340.963 173.984 340.963 173.984L341.832 162.866L350.427 159.729L360.146 161.059Z" fill="#956363"/>
<path d="M356.49 167.667C355.21 165.86 353.074 164.531 350.795 164.578C348.229 164.626 346.141 166.668 346.376 169.662L346.424 170.326C346.445 170.628 346.348 170.925 346.154 171.156C345.959 171.386 345.682 171.531 345.382 171.561C345.102 171.565 344.826 171.626 344.569 171.738C344.312 171.85 344.08 172.011 343.886 172.213C343.691 172.414 343.538 172.652 343.436 172.913C343.334 173.174 343.284 173.452 343.289 173.733L343.337 175.679C343.337 175.794 343.291 175.905 343.21 175.986C343.128 176.068 343.018 176.113 342.903 176.113C342.903 176.113 342.334 176.205 342.239 175.731L341.952 173.642L343.949 161.854L353.73 159.291L357.81 162.767L356.49 167.667Z" fill="black"/>
<path opacity="0.15" d="M341.488 178.264C341.488 178.264 342.248 178.216 342.864 177.217L341.345 179.824L341.488 178.264Z" fill="black"/>
<path opacity="0.15" d="M345.478 187.436C346.802 189.086 348.702 190.173 350.795 190.477C352.337 191.56 354.182 192.126 356.065 192.093L355.922 188.956L355.488 189.191C353.886 190.004 352.054 190.24 350.298 189.86C348.543 189.479 346.973 188.505 345.851 187.101C345.803 187.005 345.612 187.005 345.521 187.053C345.481 187.107 345.455 187.171 345.448 187.238C345.44 187.306 345.45 187.373 345.478 187.436Z" fill="black"/>
<path d="M355.306 182.682L350.223 181.496C350.198 182.077 350.373 182.649 350.719 183.115C351.065 183.582 351.562 183.916 352.124 184.059C354.546 184.677 355.306 182.682 355.306 182.682Z" fill="white"/>
<path d="M350.796 174.019C350.589 174.018 350.386 174.079 350.214 174.193C350.041 174.308 349.906 174.471 349.826 174.662C349.747 174.853 349.725 175.064 349.765 175.268C349.805 175.471 349.904 175.658 350.05 175.805C350.197 175.952 350.383 176.052 350.586 176.093C350.789 176.134 351 176.113 351.191 176.034C351.383 175.955 351.546 175.821 351.661 175.648C351.776 175.476 351.838 175.273 351.838 175.066C351.838 174.789 351.728 174.523 351.533 174.327C351.338 174.131 351.073 174.02 350.796 174.019Z" fill="black"/>
<path d="M351.268 174.984C351.373 174.984 351.459 174.898 351.459 174.793C351.459 174.687 351.373 174.602 351.268 174.602C351.162 174.602 351.077 174.687 351.077 174.793C351.077 174.898 351.162 174.984 351.268 174.984Z" fill="white"/>
<path d="M358.913 176.413C359.49 176.413 359.959 175.944 359.959 175.366C359.959 174.788 359.49 174.319 358.913 174.319C358.335 174.319 357.866 174.788 357.866 175.366C357.866 175.944 358.335 176.413 358.913 176.413Z" fill="black"/>
<path d="M359.339 175.222C359.445 175.222 359.53 175.137 359.53 175.031C359.53 174.926 359.445 174.84 359.339 174.84C359.234 174.84 359.148 174.926 359.148 175.031C359.148 175.137 359.234 175.222 359.339 175.222Z" fill="white"/>
<path opacity="0.3" d="M355.211 181.114L353.882 181.162C353.841 181.165 353.801 181.16 353.762 181.147C353.724 181.135 353.688 181.115 353.657 181.088C353.626 181.062 353.601 181.03 353.583 180.993C353.564 180.957 353.553 180.918 353.55 180.877C353.547 180.836 353.552 180.796 353.564 180.757C353.577 180.718 353.597 180.683 353.623 180.652C353.65 180.621 353.682 180.595 353.718 180.577C353.754 180.559 353.794 180.548 353.834 180.545L355.163 180.497C355.493 180.449 355.779 180.162 355.732 179.88C355.684 179.597 355.402 179.258 355.115 179.306C355.038 179.297 354.965 179.265 354.906 179.215C354.847 179.164 354.803 179.098 354.781 179.024C354.733 178.881 354.924 178.737 355.067 178.689C355.389 178.676 355.705 178.787 355.947 179C356.189 179.212 356.341 179.511 356.37 179.832C356.383 179.993 356.362 180.156 356.31 180.309C356.258 180.463 356.176 180.604 356.067 180.724C355.958 180.844 355.826 180.941 355.679 181.007C355.532 181.075 355.372 181.111 355.211 181.114Z" fill="black"/>
<path d="M361.905 172.75L357.442 172.607H356.826L352.919 172.511H352.871L347.836 172.368C347.445 172.358 347.067 172.503 346.783 172.771C346.499 173.038 346.331 173.407 346.316 173.797L346.273 174.935C346.257 175.462 346.345 175.988 346.532 176.481C346.72 176.974 347.002 177.425 347.363 177.809C347.724 178.193 348.158 178.502 348.639 178.718C349.119 178.934 349.638 179.054 350.165 179.069C350.691 179.085 351.216 178.997 351.709 178.809C352.201 178.622 352.652 178.34 353.036 177.978C353.419 177.616 353.728 177.183 353.944 176.702C354.16 176.22 354.279 175.702 354.295 175.175L354.343 174.032C354.358 173.87 354.34 173.706 354.291 173.551C354.242 173.396 354.162 173.252 354.056 173.128L355.623 173.176C355.399 173.422 355.281 173.747 355.293 174.079L355.246 175.222C355.23 175.749 355.319 176.275 355.506 176.767C355.694 177.261 355.976 177.712 356.338 178.095C357.068 178.87 358.076 179.323 359.14 179.354C360.204 179.385 361.236 178.992 362.01 178.261C362.784 177.53 363.237 176.522 363.268 175.457L363.316 174.319C363.32 173.927 363.178 173.549 362.917 173.258C362.655 172.968 362.294 172.786 361.905 172.75ZM353.835 174.019L353.787 175.162C353.742 176.055 353.35 176.896 352.693 177.504C352.037 178.111 351.169 178.437 350.275 178.412C349.381 178.387 348.533 178.013 347.912 177.37C347.29 176.727 346.945 175.865 346.95 174.97L346.998 173.832C346.998 173.715 347.021 173.6 347.067 173.492C347.112 173.385 347.179 173.288 347.263 173.206C347.346 173.125 347.446 173.062 347.555 173.02C347.664 172.979 347.78 172.959 347.896 172.963L352.997 173.15C353.211 173.186 353.408 173.29 353.559 173.446C353.709 173.603 353.806 173.803 353.835 174.019ZM362.712 175.444C362.668 176.337 362.275 177.177 361.619 177.785C360.963 178.392 360.096 178.719 359.203 178.694C358.309 178.67 357.461 178.297 356.839 177.654C356.217 177.012 355.871 176.151 355.875 175.257L355.923 174.114C355.93 173.88 356.028 173.658 356.197 173.495C356.366 173.333 356.591 173.243 356.826 173.246H357.442L361.905 173.389C362.139 173.396 362.361 173.494 362.523 173.663C362.686 173.832 362.775 174.058 362.773 174.293L362.712 175.444Z" fill="black"/>
<path d="M401.222 439.33V438.809C401.222 437.976 400.891 437.177 400.304 436.591C399.716 436.001 398.918 435.671 398.087 435.671H393.716C393.259 435.675 392.807 435.588 392.384 435.419C391.961 435.245 391.575 434.994 391.25 434.672L380.09 424.075L376.617 428.637C376.345 428.993 375.997 429.284 375.598 429.487C375.199 429.689 374.76 429.8 374.313 429.809C373.865 429.818 373.422 429.726 373.015 429.539C372.608 429.353 372.249 429.078 371.963 428.733C371.682 428.4 371.333 428.131 370.94 427.943C370.548 427.755 370.119 427.652 369.684 427.642H367.366V439.144L401.222 439.33Z" fill="#3F4249"/>
<path d="M401.22 439.33V441.041H367.269V439.144L401.22 439.33Z" fill="black"/>
<path d="M377.858 426.925L385.407 433.057C385.81 433.383 386.318 433.548 386.836 433.522C387.353 433.496 387.843 433.283 388.211 432.919L388.78 432.341L380.098 424.088C379.873 424.023 379.633 424.03 379.412 424.108C379.191 424.186 378.999 424.331 378.865 424.523L377.962 425.826C377.845 425.971 377.77 426.145 377.745 426.33C377.719 426.514 377.745 426.702 377.819 426.873L377.858 426.925Z" fill="black"/>
<path d="M333.652 426.405H334.555C334.965 426.399 335.363 426.547 335.671 426.819C335.978 427.091 336.173 427.469 336.217 427.878L336.404 431.299C336.46 432.358 336.735 433.396 337.211 434.342L337.546 434.959C338.15 436.153 338.46 437.472 338.449 438.809V439.426H321.084C321.09 437.728 321.602 436.074 322.556 434.672C323.266 433.626 323.706 432.415 323.837 431.156L324.214 427.734C324.296 427.355 324.507 427.015 324.81 426.773C325.113 426.531 325.489 426.401 325.877 426.405H326.493" fill="#3F4249"/>
<path d="M338.494 439.378H321.164V441.041H338.494V439.378Z" fill="black"/>
<path d="M331.374 424.836H328.809C328.504 424.839 328.204 424.906 327.927 425.033C327.649 425.159 327.402 425.343 327.201 425.572C327 425.801 326.848 426.069 326.757 426.36C326.667 426.651 326.637 426.958 326.673 427.261L327.242 431.92C327.336 432.61 327.676 433.244 328.2 433.709C328.723 434.169 329.395 434.429 330.094 434.438C330.803 434.442 331.488 434.182 332.015 433.709C332.542 433.231 332.872 432.576 332.942 431.872L333.462 427.213C333.506 426.915 333.484 426.611 333.399 426.323C333.313 426.034 333.166 425.768 332.968 425.541C332.769 425.315 332.524 425.135 332.248 425.014C331.973 424.892 331.675 424.831 331.374 424.836Z" fill="black"/>
<path d="M334.698 427.925H325.487" stroke="white" stroke-width="1.44" stroke-linecap="round" stroke-linejoin="round"/>
<path d="M334.413 430.11H325.77" stroke="white" stroke-width="1.44" stroke-linecap="round" stroke-linejoin="round"/>
<path d="M334.173 432.25H326.007" stroke="white" stroke-width="1.44" stroke-linecap="round" stroke-linejoin="round"/>
<path d="M386.5 429.115L383.127 432.294" stroke="white" stroke-width="1.44" stroke-linecap="round" stroke-linejoin="round"/>
<path d="M384.694 427.451L381.23 430.728" stroke="white" stroke-width="1.44" stroke-linecap="round" stroke-linejoin="round"/>
<path d="M382.845 425.883L379.424 429.115" stroke="white" stroke-width="1.44" stroke-linecap="round" stroke-linejoin="round"/>
<path d="M328.252 263.085L302.266 248.956C300.935 248.059 299.98 246.705 299.58 245.15C299.18 243.595 299.363 241.947 300.096 240.519L314.191 204.971C315.01 203.296 316.181 201.817 317.623 200.637C319.065 199.456 320.745 198.6 322.548 198.128L340.255 193.422L350.178 204.684L356.117 193.388L376.672 195.308H376.728C379.499 195.524 382.076 196.813 383.913 198.901L397.174 213.99L410.124 189.326L418.806 193.006L405.909 229.935C405.554 230.978 404.941 231.914 404.128 232.655C403.314 233.397 402.326 233.92 401.255 234.176H401.155C400.175 234.373 399.161 234.341 398.195 234.082C397.229 233.823 396.336 233.343 395.586 232.681L379.428 219.825L377.905 276.727C377.886 276.867 377.818 276.995 377.714 277.091C377.61 277.186 377.477 277.242 377.336 277.248H326.246C325.926 277.253 325.616 277.131 325.385 276.909C325.153 276.687 325.018 276.383 325.009 276.062L323.394 227.259L317.833 240.493L333.461 254.395L328.252 263.085Z" fill="#21252B"/>
<path opacity="0.2" d="M324.497 244.033H379.255L379.754 233.949H323.447L324.015 244.255" fill="white"/>
<path d="M352.128 223.309L354.668 218.386C358.288 211.383 359.959 203.775 360.871 195.937L361.123 193.765L356.782 193.331L349.719 200.591L339.973 193.457L334.981 194.652L337.642 201.234C339.552 205.952 341.549 210.862 344.514 215.011L350.661 223.357C350.868 223.532 351.133 223.625 351.404 223.616C351.675 223.607 351.933 223.497 352.128 223.309Z" fill="white"/>
<path d="M338.498 166.285C338.875 163.292 340.442 161.072 343.056 160.49C344.158 160.27 345.297 160.319 346.377 160.633C346.473 160.663 346.575 160.674 346.676 160.664C346.777 160.653 346.875 160.623 346.964 160.574C347.053 160.525 347.131 160.458 347.193 160.378C347.256 160.298 347.301 160.206 347.327 160.108C347.572 159.119 348.14 158.241 348.939 157.611C349.738 156.982 350.725 156.637 351.742 156.632C352.456 156.623 353.162 156.787 353.799 157.11C354.436 157.433 354.986 157.906 355.402 158.487C355.459 158.573 355.535 158.646 355.624 158.701C355.712 158.756 355.811 158.791 355.915 158.804C356.018 158.817 356.123 158.808 356.222 158.777C356.322 158.747 356.413 158.695 356.491 158.626C356.491 158.626 359.53 156.206 363.519 158.674C364.866 159.55 365.84 160.895 366.252 162.449C366.664 164.004 366.486 165.655 365.751 167.085C364.136 170.269 359.96 171.221 357.394 168.797C356.321 167.721 355.699 166.276 355.658 164.756C355.532 163.702 355.63 162.633 355.944 161.619H354.616C353.049 161.528 350.579 161.241 348.252 161.576C348.3 161.619 348.347 161.619 348.395 161.667L344.263 163.049C344.263 163.049 342.96 173.975 342.318 173.88C339.401 173.272 338.116 168.997 338.498 166.285Z" fill="black"/>
<path opacity="0.15" d="M338.12 193.922L341.936 203.229L349.845 200.835L339.4 193.649L338.12 193.922Z" fill="black"/>
<path d="M349.797 200.691L342.2 202.594L338.64 193.848L338.827 193.053C338.851 192.894 338.931 192.749 339.053 192.645C339.175 192.54 339.331 192.483 339.491 192.484H340.299L340.064 193.327L349.797 200.691Z" fill="white"/>
<path opacity="0.15" d="M357.868 193.466V202.594L349.746 200.625L356.809 193.361L357.868 193.466Z" fill="black"/>
<path d="M356.114 193.375L356.036 192.31H356.652C356.847 192.305 357.036 192.377 357.178 192.511C357.32 192.644 357.404 192.828 357.412 193.023L357.508 201.929L349.815 200.626L356.114 193.375Z" fill="white"/>
<path opacity="0.4" d="M397.175 213.99L395.972 216.245C395.883 216.347 395.774 216.428 395.651 216.484C395.528 216.54 395.395 216.568 395.26 216.568C395.125 216.568 394.992 216.54 394.869 216.484C394.747 216.428 394.637 216.347 394.548 216.245L395.538 212.252L397.175 213.99Z" fill="black"/>
<path opacity="0.4" d="M379.403 219.842L377.793 219.082C377.739 219.053 377.678 219.042 377.618 219.051C377.558 219.06 377.503 219.088 377.46 219.131C377.417 219.174 377.389 219.229 377.38 219.289C377.372 219.349 377.382 219.41 377.411 219.464L379.264 223.548L379.403 219.842Z" fill="black"/>
<path d="M341.962 172.716C341.906 172.439 341.79 172.177 341.622 171.949C341.455 171.721 341.239 171.533 340.991 171.397C340.743 171.262 340.468 171.182 340.186 171.163C339.904 171.145 339.621 171.189 339.358 171.291C336.888 172.004 337.313 176.991 340.591 178.134C342.631 178.569 342.349 177.326 342.205 175.662L341.962 172.716Z" fill="#956363"/>
<path opacity="0.3" d="M339.066 172.655C339.239 172.542 339.436 172.47 339.642 172.445C339.847 172.42 340.056 172.443 340.251 172.512C340.432 172.586 340.597 172.696 340.735 172.835C340.874 172.973 340.984 173.138 341.058 173.32C341.267 173.78 341.334 174.294 341.249 174.793V175.227C341.231 175.284 341.192 175.331 341.14 175.361C341.089 175.391 341.028 175.401 340.97 175.389C340.912 175.378 340.86 175.345 340.824 175.297C340.788 175.25 340.771 175.191 340.776 175.131V174.697C340.809 174.28 340.761 173.861 340.633 173.463C340.524 173.223 340.341 173.024 340.112 172.894C339.856 172.835 339.586 172.869 339.352 172.99C339.294 173.011 339.23 173.013 339.17 172.996C339.109 172.979 339.056 172.943 339.018 172.894C338.923 172.894 338.97 172.751 339.066 172.655Z" fill="black"/>
<g opacity="0.4">
<path opacity="0.4" d="M352.971 275.214C352.886 275.215 352.804 275.181 352.744 275.122C352.683 275.063 352.648 274.982 352.645 274.897L351.421 225.147C351.42 225.104 351.427 225.061 351.443 225.022C351.458 224.982 351.481 224.945 351.51 224.914C351.54 224.883 351.575 224.858 351.614 224.841C351.653 224.823 351.695 224.813 351.738 224.812C351.781 224.81 351.824 224.816 351.865 224.831C351.905 224.846 351.942 224.869 351.974 224.899C352.005 224.929 352.03 224.964 352.046 225.004C352.063 225.044 352.072 225.086 352.072 225.129L353.296 274.884C353.298 274.927 353.29 274.97 353.275 275.009C353.259 275.049 353.236 275.085 353.207 275.116C353.177 275.147 353.142 275.171 353.103 275.188C353.064 275.205 353.022 275.214 352.979 275.214H352.971Z" fill="black"/>
</g>
<path opacity="0.4" d="M346.919 264.388L331.83 250.403C330.12 248.821 329.051 246.666 328.826 244.346L326.95 225.164C326.943 224.863 326.831 224.573 326.634 224.345C326.437 224.117 326.167 223.964 325.87 223.912C325.573 223.861 325.267 223.915 325.005 224.064C324.743 224.213 324.541 224.449 324.433 224.73L323.343 227.25L324.906 275.958C324.917 276.316 325.068 276.655 325.326 276.904C325.584 277.152 325.929 277.29 326.286 277.287H332.029L330.944 263.119L343.012 269.602L346.919 264.388Z" fill="black"/>
<path opacity="0.4" d="M317.833 240.492L314.36 238.29C314.291 238.249 314.239 238.186 314.212 238.11C314.185 238.035 314.185 237.952 314.212 237.877C314.239 237.801 314.292 237.738 314.361 237.698C314.431 237.657 314.511 237.642 314.59 237.655L318.779 238.199L317.833 240.492Z" fill="black"/>
<path d="M406.703 378.075H396.415V380.821H406.703V378.075Z" fill="#B2B6BB"/>
<path d="M405.965 376.532H401.611C401.203 376.532 400.873 376.862 400.873 377.27V381.628C400.873 382.036 401.203 382.367 401.611 382.367H405.965C406.373 382.367 406.703 382.036 406.703 381.628V377.27C406.703 376.862 406.373 376.532 405.965 376.532Z" fill="#3F4249"/>
<path opacity="0.2" d="M397.275 378.075H396.415V380.821H397.275V378.075Z" fill="black"/>
<path d="M394.791 356.108H382.788V422.968H394.791V356.108Z" fill="#3F4249"/>
<path d="M396.711 368.121H381.213V409.5H396.711V368.121Z" fill="#B2B6BB"/>
<path d="M422.57 420.531H352.78C352.397 420.531 352.017 420.606 351.664 420.753C351.309 420.9 350.988 421.115 350.717 421.386C350.446 421.657 350.231 421.979 350.085 422.333C349.938 422.687 349.862 423.067 349.862 423.451V432.528H355.007V425.662H386.219V433.917H391.363V425.662H422.57V432.528H427.715V423.451C427.715 422.676 427.407 421.933 426.86 421.386C426.313 420.839 425.571 420.531 424.797 420.531H422.57Z" fill="#B2B6BB"/>
<path d="M352.263 440.78C355.862 440.78 358.779 437.863 358.779 434.26C358.779 430.658 355.862 427.739 352.263 427.739C348.664 427.739 345.747 430.658 345.747 434.26C345.747 437.863 348.664 440.78 352.263 440.78Z" fill="#21252B"/>
<path d="M352.263 437.177C353.874 437.177 355.18 435.87 355.18 434.26C355.18 432.645 353.874 431.338 352.263 431.338C350.651 431.338 349.345 432.645 349.345 434.26C349.345 435.87 350.651 437.177 352.263 437.177Z" fill="#B2B6BB"/>
<path d="M388.962 440.78C392.56 440.78 395.478 437.863 395.478 434.26C395.478 430.658 392.56 427.739 388.962 427.739C385.363 427.739 382.446 430.658 382.446 434.26C382.446 437.863 385.363 440.78 388.962 440.78Z" fill="#21252B"/>
<path d="M388.961 437.177C390.572 437.177 391.878 435.87 391.878 434.26C391.878 432.645 390.572 431.338 388.961 431.338C387.35 431.338 386.044 432.645 386.044 434.26C386.044 435.87 387.35 437.177 388.961 437.177Z" fill="#B2B6BB"/>
<path d="M425.657 440.78C429.255 440.78 432.172 437.863 432.172 434.26C432.172 430.658 429.255 427.739 425.657 427.739C422.058 427.739 419.141 430.658 419.141 434.26C419.141 437.863 422.058 440.78 425.657 440.78Z" fill="#21252B"/>
<path d="M425.657 437.177C427.268 437.177 428.574 435.87 428.574 434.26C428.574 432.645 427.268 431.338 425.657 431.338C424.046 431.338 422.739 432.645 422.739 434.26C422.739 435.87 424.046 437.177 425.657 437.177Z" fill="#B2B6BB"/>
<path d="M382.515 266.561H361.678V272.643H382.515V266.561Z" fill="#5F6EA6"/>
<path opacity="0.3" d="M382.515 266.561H361.678V272.643H382.515V266.561Z" fill="black"/>
<path d="M388.059 248.312H355.701C354.926 248.312 354.299 248.941 354.299 249.716V266.895C354.299 267.67 354.926 268.298 355.701 268.298H388.059C388.833 268.298 389.461 267.67 389.461 266.895V249.716C389.461 248.941 388.833 248.312 388.059 248.312Z" fill="#5F6EA6"/>
<path opacity="0.2" d="M358.106 248.312H355.701C354.926 248.312 354.299 248.941 354.299 249.716V266.895C354.299 267.67 354.926 268.298 355.701 268.298H358.106C358.88 268.298 359.508 267.67 359.508 266.895V249.716C359.508 248.941 358.88 248.312 358.106 248.312Z" fill="black"/>
<path d="M400.044 319.726H397.3V351.99H400.044V319.726Z" fill="#B2B6BB"/>
<path opacity="0.3" d="M400.044 319.726H397.3V351.99H400.044V319.726Z" fill="white"/>
<path d="M444.492 355.765H441.267L438.18 316.637H441.193C441.38 316.637 441.562 316.707 441.701 316.835C441.84 316.961 441.927 317.136 441.944 317.323L445.243 354.948C445.252 355.052 445.239 355.157 445.204 355.255C445.174 355.354 445.117 355.445 445.048 355.522C444.979 355.599 444.892 355.66 444.796 355.702C444.701 355.744 444.596 355.765 444.492 355.765Z" fill="#B2B6BB"/>
<path opacity="0.3" d="M444.492 355.765H441.267L438.18 316.637H441.193C441.38 316.637 441.562 316.707 441.701 316.835C441.84 316.961 441.927 317.136 441.944 317.323L445.243 354.948C445.252 355.052 445.239 355.157 445.204 355.255C445.174 355.354 445.117 355.445 445.048 355.522C444.979 355.599 444.892 355.66 444.796 355.702C444.701 355.744 444.596 355.765 444.492 355.765Z" fill="white"/>
<path d="M392.669 317.71V354.865C392.67 355.149 392.784 355.422 392.985 355.623C393.186 355.824 393.457 355.937 393.742 355.938H441.471C441.619 355.938 441.766 355.907 441.905 355.847C442.04 355.787 442.161 355.699 442.261 355.59C442.361 355.479 442.439 355.35 442.487 355.208C442.534 355.067 442.552 354.918 442.539 354.77L439.296 317.614C439.274 317.347 439.148 317.099 438.953 316.918C438.753 316.737 438.497 316.637 438.228 316.637H393.742C393.457 316.637 393.184 316.749 392.983 316.951C392.782 317.152 392.669 317.425 392.669 317.71ZM436.839 351.976H398.361C398.076 351.975 397.804 351.862 397.603 351.661C397.402 351.46 397.289 351.187 397.288 350.903V321.672C397.289 321.388 397.402 321.116 397.603 320.915C397.804 320.714 398.076 320.6 398.361 320.599H433.957C434.221 320.599 434.482 320.698 434.677 320.877C434.877 321.056 434.998 321.302 435.024 321.568L437.898 350.794C437.916 350.943 437.898 351.094 437.855 351.236C437.807 351.378 437.733 351.509 437.633 351.621C437.534 351.732 437.408 351.822 437.273 351.883C437.139 351.944 436.991 351.976 436.839 351.976Z" fill="#B2B6BB"/>
<path d="M407.26 356.451H341.02C340.848 356.449 340.679 356.412 340.521 356.343C340.364 356.274 340.221 356.175 340.103 356.051C339.984 355.927 339.89 355.781 339.828 355.621C339.766 355.461 339.735 355.29 339.74 355.118L343.034 272.608C343.056 272.08 343.281 271.58 343.662 271.215C344.043 270.848 344.551 270.644 345.079 270.645H400.115C400.643 270.644 401.151 270.848 401.532 271.215C401.913 271.58 402.138 272.08 402.159 272.608L407.26 356.451Z" fill="#5F6EA6"/>
<path opacity="0.2" d="M347.401 356.282H340.842C340.668 356.282 340.496 356.247 340.335 356.179C340.175 356.112 340.03 356.013 339.908 355.888C339.787 355.763 339.692 355.616 339.628 355.453C339.565 355.291 339.535 355.118 339.539 354.944L342.839 272.439C342.86 271.91 343.085 271.41 343.465 271.043C343.847 270.677 344.355 270.471 344.883 270.47H348.673C348.949 270.47 349.221 270.526 349.475 270.634C349.729 270.742 349.958 270.9 350.149 271.099C350.34 271.298 350.488 271.533 350.586 271.791C350.684 272.049 350.729 272.324 350.718 272.6L347.401 356.282Z" fill="black"/>
<path d="M339.512 343.409H444.592C445.69 343.409 446.745 343.845 447.518 344.622C448.295 345.4 448.733 346.454 448.733 347.553V352.311C448.733 353.41 448.295 354.464 447.518 355.241C446.745 356.019 445.69 356.456 444.592 356.456H340.797C340.452 356.456 340.121 356.318 339.876 356.074C339.632 355.829 339.495 355.498 339.495 355.152V343.409H339.512Z" fill="#5F6EA6"/>
<path opacity="0.2" d="M442.422 343.626H394.202C393.893 343.482 393.557 343.409 393.216 343.409H339.513V355.165C339.513 355.511 339.651 355.842 339.895 356.087C340.139 356.331 340.471 356.469 340.816 356.469H393.216C393.528 356.469 393.836 356.408 394.123 356.29C394.411 356.171 394.672 355.997 394.892 355.777C395.113 355.557 395.287 355.296 395.406 355.008C395.525 354.72 395.587 354.412 395.587 354.101V345.781C395.589 345.455 395.525 345.133 395.397 344.834C395.269 344.535 395.081 344.265 394.844 344.043H442.422V343.626Z" fill="black"/>
<path d="M346.885 320.069H344.141V352.332H346.885V320.069Z" fill="#B2B6BB"/>
<path opacity="0.3" d="M346.885 320.069H344.141V352.332H346.885V320.069Z" fill="white"/>
<path d="M391.337 356.108H388.111L385.025 316.98H388.038C388.226 316.98 388.407 317.051 388.546 317.178C388.685 317.305 388.771 317.479 388.789 317.666L392.083 355.291C392.092 355.395 392.08 355.499 392.046 355.598C392.013 355.696 391.96 355.787 391.889 355.864C391.819 355.94 391.734 356.002 391.639 356.044C391.544 356.086 391.441 356.108 391.337 356.108Z" fill="#B2B6BB"/>
<path opacity="0.3" d="M391.337 356.108H388.111L385.025 316.98H388.038C388.226 316.98 388.407 317.051 388.546 317.178C388.685 317.305 388.771 317.479 388.789 317.666L392.083 355.291C392.092 355.395 392.08 355.499 392.046 355.598C392.013 355.696 391.96 355.787 391.889 355.864C391.819 355.94 391.734 356.002 391.639 356.044C391.544 356.086 391.441 356.108 391.337 356.108Z" fill="white"/>
<path d="M339.514 318.053V355.191C339.514 355.332 339.542 355.472 339.595 355.602C339.649 355.732 339.728 355.851 339.828 355.95C339.928 356.05 340.046 356.129 340.176 356.183C340.306 356.237 340.445 356.264 340.586 356.264H388.311C388.46 356.264 388.608 356.234 388.744 356.174C388.88 356.113 389.002 356.026 389.102 355.916C389.203 355.806 389.279 355.676 389.327 355.535C389.375 355.394 389.392 355.244 389.379 355.096L386.137 317.941C386.113 317.674 385.99 317.425 385.792 317.244C385.594 317.063 385.337 316.963 385.069 316.963H340.586C340.444 316.962 340.303 316.99 340.171 317.045C340.04 317.1 339.92 317.18 339.82 317.282C339.72 317.384 339.642 317.504 339.589 317.637C339.536 317.769 339.511 317.911 339.514 318.053ZM383.68 352.32H345.205C344.921 352.32 344.648 352.206 344.447 352.005C344.246 351.804 344.133 351.531 344.133 351.247V322.016C344.133 321.731 344.246 321.458 344.447 321.257C344.648 321.056 344.921 320.943 345.205 320.943H380.801C381.068 320.942 381.325 321.042 381.522 321.221C381.72 321.4 381.843 321.646 381.869 321.912L384.743 351.138C384.757 351.287 384.741 351.437 384.694 351.579C384.647 351.722 384.572 351.852 384.471 351.963C384.371 352.075 384.25 352.163 384.113 352.225C383.976 352.286 383.829 352.318 383.68 352.32Z" fill="#B2B6BB"/>
<path d="M357.612 273.672L354.629 267.833C354.345 267.208 353.84 266.711 353.21 266.438L345.578 264.197L337.031 257.502L333.684 265.431L337.591 267.464L338.459 268.246C339.17 268.919 340.014 269.434 340.937 269.761C341.86 270.087 342.84 270.216 343.816 270.141H343.855L345.531 270.01C345.735 269.996 345.939 270.023 346.133 270.09C346.326 270.157 346.503 270.263 346.655 270.401L349.694 273.312C349.77 273.385 349.865 273.436 349.968 273.459C350.072 273.482 350.179 273.477 350.28 273.442C350.371 273.413 350.455 273.363 350.526 273.297C350.596 273.231 350.651 273.15 350.686 273.06C350.722 272.971 350.736 272.874 350.73 272.778C350.723 272.682 350.695 272.588 350.649 272.504L348.743 269.462L351.612 273.946C351.677 274.048 351.766 274.132 351.871 274.19C351.977 274.249 352.095 274.28 352.216 274.281C352.332 274.28 352.445 274.25 352.546 274.194C352.648 274.139 352.734 274.058 352.797 273.961C352.86 273.863 352.898 273.752 352.907 273.636C352.916 273.521 352.896 273.405 352.849 273.299L351.113 269.363L353.431 274.489C353.49 274.617 353.586 274.725 353.707 274.798C353.828 274.87 353.967 274.905 354.108 274.898C354.229 274.9 354.348 274.873 354.455 274.819C354.563 274.765 354.656 274.687 354.727 274.59C354.799 274.493 354.846 274.381 354.865 274.262C354.885 274.143 354.875 274.021 354.838 273.907L353.323 269.475L356.396 274.32C356.446 274.406 356.513 274.481 356.592 274.54C356.672 274.6 356.762 274.643 356.858 274.666C356.955 274.69 357.055 274.695 357.153 274.679C357.251 274.664 357.345 274.629 357.429 274.576C357.568 274.476 357.664 274.328 357.698 274.16C357.731 273.993 357.701 273.818 357.612 273.672Z" fill="#956363"/>
<path opacity="0.15" d="M350.513 272.717C350.47 272.717 350.47 272.717 350.444 272.638L348.707 269.836C348.681 269.78 348.673 269.676 348.733 269.65C348.794 269.623 348.894 269.615 348.92 269.676L350.678 272.478C350.704 272.534 350.713 272.638 350.652 272.664L350.513 272.717Z" fill="black"/>
<path opacity="0.15" d="M352.636 273.447C352.593 273.447 352.55 273.416 352.567 273.373L350.913 269.676C350.899 269.644 350.898 269.608 350.911 269.576C350.924 269.544 350.949 269.518 350.98 269.504C351.012 269.49 351.048 269.489 351.08 269.502C351.112 269.515 351.138 269.54 351.152 269.571L352.806 273.269C352.817 273.3 352.816 273.335 352.803 273.366C352.79 273.398 352.766 273.423 352.736 273.438C352.723 273.481 352.68 273.464 352.636 273.447Z" fill="black"/>
<path opacity="0.15" d="M347.517 270.314C348.16 271.061 349.302 272.291 349.653 272.773C350.187 273.424 350.6 272.994 350.6 272.994C350.579 273.111 350.528 273.22 350.452 273.311C350.376 273.402 350.277 273.471 350.165 273.511C350.064 273.535 349.958 273.535 349.857 273.512C349.755 273.488 349.661 273.442 349.579 273.377L346.541 270.47C346.39 270.332 346.212 270.226 346.018 270.159C345.825 270.092 345.62 270.064 345.416 270.079L346.285 269.936C346.505 269.886 346.735 269.895 346.951 269.961C347.167 270.028 347.362 270.149 347.517 270.314Z" fill="black"/>
<path d="M323.043 244.403L340.312 258.883L335.198 266.126L306.113 250.05L323.043 244.403Z" fill="#21252B"/>
<path d="M334.986 266.795L340.022 259.392L341.897 260.977L337.083 267.898L334.986 266.795Z" fill="white"/>
<path opacity="0.4" d="M301.012 238.199C301.012 238.199 298.629 242.665 308.449 248.313L338.011 266.561L337.082 267.899L304.216 250.016C304.216 250.016 296.346 246.771 301.012 238.199Z" fill="black"/>
<path d="M327.544 175.236L323.415 168.806C324.902 164.134 324.581 159.074 322.516 154.629C320.45 150.183 316.792 146.677 312.265 144.804C307.737 142.931 302.673 142.829 298.074 144.518C293.475 146.206 289.678 149.562 287.435 153.921C285.193 158.279 284.668 163.322 285.965 168.049C287.262 172.777 290.286 176.844 294.439 179.445C298.591 182.046 303.568 182.991 308.383 182.092C313.199 181.193 317.501 178.517 320.438 174.593L327.544 175.236Z" fill="white"/>
<path d="M306.946 182.591C303.04 183.012 299.098 182.265 295.616 180.444C292.135 178.624 289.272 175.81 287.388 172.36C285.504 168.911 284.685 164.979 285.034 161.063C285.383 157.148 286.884 153.424 289.348 150.361C291.811 147.3 295.127 145.038 298.875 143.862C302.624 142.686 306.636 142.649 310.405 143.755C314.174 144.862 317.531 147.062 320.051 150.078C322.571 153.094 324.14 156.79 324.562 160.698C324.86 163.409 324.591 166.152 323.771 168.753L328.178 175.622L320.563 174.931C318.937 177.071 316.89 178.855 314.547 180.173C312.205 181.49 309.618 182.313 306.946 182.591ZM302.757 143.715C297.691 144.261 293.049 146.799 289.853 150.77C286.657 154.741 285.168 159.82 285.714 164.891C286.259 169.961 288.795 174.606 292.763 177.805C296.731 181.004 301.806 182.494 306.872 181.948C309.487 181.677 312.018 180.867 314.304 179.568C316.591 178.269 318.583 176.51 320.155 174.401L320.264 174.254L326.91 174.857L323.042 168.849L323.09 168.701C324.067 165.651 324.268 162.406 323.674 159.259C323.08 156.113 321.709 153.164 319.688 150.682C317.666 148.2 315.057 146.263 312.097 145.046C309.137 143.829 305.921 143.371 302.739 143.715H302.757Z" fill="#37447E"/>
<path d="M308.409 160.612C307.4 161.409 306.149 161.838 304.862 161.827C303.577 161.816 302.333 161.366 301.338 160.551C297.513 162.51 295.534 167.611 295.534 172.312H314.309C314.291 167.628 312.19 162.593 308.409 160.612Z" fill="#BAC3E5"/>
<path d="M304.906 161.202C307.723 161.202 310.007 158.916 310.007 156.097C310.007 153.278 307.723 150.992 304.906 150.992C302.088 150.992 299.805 153.278 299.805 156.097C299.805 158.916 302.088 161.202 304.906 161.202Z" fill="#BAC3E5"/>
<path d="M161.87 308.117H140.725V309.56H161.87V308.117Z" fill="#AFB3B8"/>
<path d="M161.87 300.818H140.725V309.559H161.87V300.818Z" fill="#D7DADC"/>
<path d="M161.869 300.818H140.72V302.26H161.869V309.559H191.171V300.818H161.869Z" fill="#AFB3B8"/>
<path d="M191.171 300.818H161.869H140.72V302.26H161.869V308.117H140.724V309.559H161.869H191.171V300.818Z" fill="#5F6EA6"/>
<path d="M179.142 303.855H166.774V306.983H179.142V303.855Z" fill="#D7DADC"/>
<path d="M182.229 305.189C182.229 304.678 182.38 304.179 182.664 303.755C182.947 303.33 183.35 303 183.821 302.804C184.292 302.609 184.811 302.558 185.311 302.658C185.811 302.757 186.271 303.003 186.631 303.364C186.992 303.725 187.237 304.185 187.337 304.685C187.436 305.186 187.385 305.704 187.19 306.176C186.995 306.648 186.664 307.051 186.24 307.335C185.816 307.618 185.318 307.769 184.808 307.769C184.124 307.769 183.468 307.497 182.984 307.013C182.501 306.529 182.229 305.873 182.229 305.189ZM183.097 305.189C183.097 305.525 183.197 305.853 183.383 306.133C183.57 306.412 183.835 306.63 184.145 306.758C184.455 306.887 184.796 306.92 185.126 306.855C185.455 306.789 185.757 306.627 185.995 306.39C186.232 306.152 186.394 305.849 186.459 305.52C186.525 305.191 186.491 304.849 186.363 304.539C186.234 304.228 186.017 303.963 185.737 303.776C185.458 303.59 185.13 303.49 184.795 303.49C184.345 303.491 183.914 303.67 183.596 303.988C183.278 304.307 183.099 304.739 183.097 305.189Z" fill="#D7DADC"/>
<path d="M165.519 293.497H148.489V300.817H165.519V293.497Z" fill="#D7DADC"/>
<path d="M148.489 293.497H165.519H189.117V295.369V300.817H165.519V294.657H148.489V293.497Z" fill="#AFB3B8"/>
<path d="M165.866 299.376H148.489V300.818H165.866V299.376Z" fill="#AFB3B8"/>
<path d="M165.519 293.497H148.489V294.657H165.519V299.375H148.489V300.817H165.519H189.117V295.369V293.497H165.519Z" fill="#5F6EA6"/>
<path d="M179.432 295.943H169.474V298.463H179.432V295.943Z" fill="#D7DADC"/>
<path d="M181.92 297.017C181.92 296.606 182.042 296.204 182.27 295.863C182.498 295.521 182.822 295.255 183.201 295.098C183.58 294.941 183.998 294.9 184.4 294.98C184.803 295.06 185.173 295.258 185.463 295.548C185.753 295.839 185.951 296.208 186.03 296.611C186.111 297.014 186.07 297.432 185.912 297.811C185.756 298.191 185.49 298.515 185.148 298.743C184.807 298.972 184.406 299.094 183.995 299.094C183.445 299.094 182.917 298.874 182.528 298.485C182.139 298.096 181.92 297.567 181.92 297.017ZM182.628 297.017C182.628 297.287 182.708 297.552 182.858 297.777C183.009 298.002 183.222 298.178 183.472 298.281C183.722 298.385 183.997 298.412 184.262 298.359C184.528 298.306 184.771 298.176 184.963 297.984C185.154 297.793 185.284 297.549 185.337 297.284C185.389 297.018 185.362 296.743 185.259 296.493C185.155 296.243 184.98 296.029 184.755 295.879C184.53 295.728 184.266 295.648 183.995 295.648C183.633 295.648 183.285 295.792 183.029 296.049C182.772 296.306 182.628 296.653 182.628 297.017Z" fill="#D7DADC"/>
<g opacity="0.15">
<g opacity="0.15">
<path opacity="0.15" d="M189.117 300.353H148.489V300.818H189.117V300.353Z" fill="black"/>
</g>
</g>
<path d="M535.415 442H106.585C106.43 442 106.281 441.95 106.171 441.853C106.062 441.76 106 441.633 106 441.5C106 441.37 106.062 441.24 106.171 441.147C106.281 441.053 106.43 441 106.585 441H535.415C535.571 441 535.719 441.053 535.828 441.147C535.938 441.24 536 441.37 536 441.5C536 441.633 535.938 441.76 535.828 441.853C535.719 441.95 535.571 442 535.415 442Z" fill="#B2B6BB"/>
</svg>
