<svg width="409" height="94" viewBox="0 0 409 94" fill="none" xmlns="http://www.w3.org/2000/svg">
<path d="M149.27 42.1941C149.102 41.9929 148.888 41.8345 148.646 41.7319C148.405 41.6294 148.142 41.5856 147.88 41.6041C147.681 41.5795 147.48 41.5795 147.28 41.6041L145.38 41.9541C143.075 42.4604 140.735 42.7947 138.38 42.9541H137.98L138.13 42.5741C139.124 40.3688 139.681 37.9915 139.77 35.5741C139.868 34.1658 139.453 32.7696 138.6 31.6441C138.215 31.2267 137.741 30.9006 137.213 30.6895C136.686 30.4785 136.118 30.3878 135.55 30.4241C134.135 30.4079 132.756 30.8734 131.64 31.7441C130.451 32.6701 129.503 33.8712 128.88 35.2441C128.223 36.6319 127.881 38.1484 127.88 39.6841C127.834 41.2889 128.177 42.881 128.88 44.3241L128.94 44.4441L128.87 44.5741C127.5 47.0041 125.41 50.3041 122.66 54.3741L122.25 54.9941L122.19 54.2541C121.56 45.8241 121.19 38.8841 121.19 33.6241C121.287 32.7347 121.052 31.8409 120.53 31.1141C119.865 30.5912 119.023 30.3442 118.18 30.4241C117.317 30.3956 116.465 30.633 115.74 31.1041C114.906 31.7977 114.302 32.729 114.01 33.7741C111.38 40.9141 108.48 47.8341 105.38 54.3341L104.97 55.2041L104.89 54.2041C104.26 45.7741 103.89 38.8341 103.89 33.5741C103.937 33.1325 103.892 32.6859 103.758 32.2626C103.623 31.8392 103.403 31.4482 103.11 31.1141C102.404 30.5695 101.519 30.3091 100.63 30.3841C99.4526 30.2979 98.2782 30.5924 97.2804 31.2241C96.8767 31.6061 96.5646 32.0742 96.3672 32.5937C96.1698 33.1132 96.0923 33.6705 96.1404 34.2241V36.6241C96.1404 38.2641 96.1404 40.0141 96.2304 41.8241V42.0341H96.0304C94.1963 42.4712 92.3305 42.7621 90.4504 42.9041H90.2004V42.6641C89.94 39.4173 88.6509 36.338 86.5204 33.8741C85.481 32.7311 84.2036 31.8298 82.7782 31.2337C81.3528 30.6376 79.8141 30.3613 78.2704 30.4241C75.5562 30.4046 72.8972 31.1911 70.6304 32.6841C68.2802 34.2545 66.4029 36.4361 65.2004 38.9941C63.8393 41.8782 63.1552 45.0353 63.2004 48.2241C63.1974 49.084 63.2576 49.943 63.3804 50.7941V50.9241L63.2904 51.0141C62.5199 51.8174 61.6762 52.5472 60.7704 53.1941C59.4358 54.1783 57.8284 54.7234 56.1704 54.7541C55.4321 54.801 54.6923 54.6877 54.0019 54.4219C53.3114 54.1561 52.6867 53.7441 52.1704 53.2141C51.192 51.9286 50.7317 50.3227 50.8804 48.7141C50.9211 46.6963 51.1555 44.6871 51.5804 42.7141L55.7804 23.0041C56.3171 20.5993 56.6152 18.1475 56.6704 15.6841C56.8212 12.6371 55.8259 9.64403 53.8804 7.29412C52.0304 5.22412 49.2304 4.17412 45.5604 4.17412C43.2653 4.16572 40.9924 4.62212 38.8784 5.51581C36.7645 6.4095 34.8534 7.72198 33.2604 9.37412C29.7804 12.8341 26.8504 18.0041 24.5704 24.7441L24.0804 24.6241C24.6929 20.8051 25.057 16.9503 25.1704 13.0841C25.1704 10.1741 24.5604 7.93412 23.3404 6.42412C22.6685 5.64962 21.825 5.04285 20.877 4.6522C19.929 4.26155 18.9029 4.09784 17.8804 4.17412C14.8547 4.18612 11.8929 5.04523 9.33041 6.65412C6.40735 8.49514 3.87578 10.8942 1.88041 13.7141C1.28235 14.4917 0.785069 15.3417 0.400407 16.2441C0.131476 16.9288 -0.00428096 17.6585 0.000412966 18.3941C-0.0112867 19.0995 0.225937 19.7863 0.670411 20.3341C0.83299 20.5805 1.05217 20.7844 1.30964 20.9288C1.56711 21.0732 1.85539 21.1539 2.15041 21.1641C2.54577 21.1374 2.92852 21.014 3.26504 20.8048C3.60156 20.5955 3.88154 20.3069 4.08041 19.9641C5.63905 17.729 7.53101 15.746 9.69041 14.0841C10.9586 13.0304 12.5106 12.3761 14.1504 12.2041C15.8304 12.2041 16.6804 13.3341 16.6804 15.5641C16.6042 18.3418 16.3704 21.1129 15.9804 23.8641C15.5104 28.0141 14.9804 32.1741 14.2604 36.2441C13.7671 39.2641 13.4337 41.2841 13.2604 42.3041L13.1504 42.9641C12.5004 46.8641 11.9904 50.0341 11.7004 52.1341C11.4513 53.8331 11.3177 55.547 11.3004 57.2641C11.3004 59.2641 11.6404 60.6941 12.3004 61.3941C13.2798 62.1723 14.5271 62.5317 15.7704 62.3941C17.4704 62.3941 18.6204 61.9741 19.1804 61.1341C19.9588 59.6511 20.425 58.0243 20.5504 56.3541C21.8904 46.1441 23.7504 37.6741 26.0804 31.1741C28.4104 24.6741 31.0104 19.8141 33.7804 16.8541C36.5504 13.8941 39.4104 12.4241 42.2304 12.4241C42.9102 12.3831 43.5909 12.4856 44.2284 12.7251C44.8659 12.9646 45.4458 13.3357 45.9304 13.8141C46.8359 14.8237 47.3066 16.1496 47.2404 17.5041C47.2379 18.4513 47.1677 19.397 47.0304 20.3341C46.8904 21.3341 46.7004 22.3341 46.4804 23.3341C46.3504 23.9641 46.2304 24.4741 46.1404 24.8741L45.9904 25.5441L43.2404 38.1541C42.6304 40.9941 42.2404 43.2141 41.9604 44.9641C41.7247 46.5937 41.6011 48.2376 41.5904 49.8841C41.5904 53.7041 42.6804 56.7941 44.8304 59.0441C46.9804 61.2941 50.0004 62.4441 53.8304 62.4441C56.3778 62.4273 58.8756 61.7373 61.0704 60.4441C62.653 59.5195 64.1114 58.3972 65.4104 57.1041L65.6304 56.8841L65.8004 57.1441C66.6792 58.4445 67.7954 59.5675 69.0904 60.4541C71.1387 61.8199 73.5594 62.5185 76.0204 62.4541C79.21 62.45 82.2782 61.2306 84.6004 59.0441C87.2157 56.6082 88.9967 53.4101 89.6904 49.9041V49.7141H89.8904C92.0576 49.6346 94.2115 49.3398 96.3204 48.8341L96.6204 48.7641V49.0641C96.7104 50.5541 96.8304 52.0641 96.9604 53.5441C97.2304 56.6541 97.9004 58.9441 98.9604 60.3741C99.4333 61.0497 100.069 61.5952 100.808 61.9605C101.547 62.3258 102.367 62.499 103.19 62.4641C104.546 62.4934 105.877 62.1021 107 61.3441C108.391 60.2329 109.521 58.8299 110.31 57.2341C111.802 54.3942 113.085 51.4498 114.15 48.4241L114.57 47.3041L114.99 53.5241C115.21 56.7141 115.79 59.0441 116.7 60.4341C117.129 61.0931 117.726 61.6258 118.429 61.9773C119.132 62.3289 119.916 62.4866 120.7 62.4341C122.245 62.4567 123.753 61.968 124.99 61.0441C126.803 59.5129 128.377 57.7198 129.66 55.7241C131.33 53.3341 132.77 51.1441 134.06 49.0441L134.17 48.8841H134.36C136.187 49.4453 138.089 49.7218 140 49.7041C142.262 49.7226 144.513 49.3851 146.67 48.7041C147.617 48.4223 148.443 47.8351 149.02 47.0341C149.594 46.0729 149.866 44.9616 149.8 43.8441C149.815 43.25 149.628 42.6684 149.27 42.1941ZM82.8004 48.4841C82.5763 50.4269 81.8028 52.2655 80.5704 53.7841C80.0796 54.3684 79.4676 54.8391 78.777 55.1637C78.0864 55.4883 77.3335 55.659 76.5704 55.6641C75.8301 55.6394 75.1069 55.4342 74.4639 55.0665C73.8208 54.6988 73.2772 54.1796 72.8804 53.5541C71.7544 51.786 71.2187 49.7062 71.3504 47.6141C71.3504 44.3641 71.9804 41.7941 73.2204 39.9941C73.7166 39.1603 74.4185 38.4677 75.2589 37.9827C76.0993 37.4977 77.0502 37.2365 78.0204 37.2241H78.6704L78.6104 37.5341C78.4792 38.2432 78.4155 38.9631 78.4204 39.6841C78.4105 41.3669 78.7868 43.0296 79.5204 44.5441C80.2413 46.0329 81.3415 47.3055 82.7104 48.2341L82.8504 48.3241L82.8004 48.4841Z" fill="#37447E"/>
<path d="M344.61 33.244C343.903 32.8764 343.105 32.717 342.31 32.784C341.304 32.7723 340.3 32.8594 339.31 33.044H339.07L339.01 32.804C338.896 32.0861 338.623 31.4028 338.21 30.804C337.682 30.4041 337.019 30.2249 336.36 30.304C333.171 30.3439 330.076 31.3942 327.52 33.304C324.705 35.3449 322.426 38.0387 320.88 41.154C319.287 44.2073 318.427 47.5903 318.37 51.034V51.134L318.31 51.204C317.544 52.0531 316.733 52.8609 315.88 53.624C314.982 54.6045 313.761 55.2292 312.44 55.384C311.44 55.384 310.18 54.864 310.18 52.384C310.392 49.6847 310.834 47.0084 311.5 44.384C312.284 41.2107 312.789 37.9751 313.01 34.714C313.01 31.874 311.63 30.494 308.79 30.494C307.044 30.5688 305.35 31.1072 303.88 32.054C301.732 33.4296 299.871 35.2092 298.4 37.294C296.283 40.2403 294.58 43.4638 293.34 46.874L292.68 48.584L292.84 46.764C292.982 45.0427 293.215 43.3302 293.54 41.634C293.84 40.154 294.21 38.524 294.64 36.804C295.13 35.2064 295.464 33.5656 295.64 31.904C295.671 31.6996 295.646 31.4908 295.569 31.2992C295.491 31.1076 295.364 30.9401 295.2 30.814C294.645 30.5549 294.031 30.4479 293.42 30.504C292.086 30.4295 290.758 30.7347 289.59 31.384C288.64 32.0632 287.957 33.0539 287.66 34.184C286.075 39.2664 285.229 44.5507 285.15 49.874V49.974L285.08 50.044C284.029 51.284 282.914 52.4689 281.74 53.594C280.44 54.794 279.37 55.384 278.46 55.384C278.028 55.4082 277.599 55.3031 277.227 55.0823C276.854 54.8615 276.556 54.5348 276.37 54.144C275.931 53.1053 275.733 51.9805 275.79 50.854C276.043 47.3724 276.599 43.9193 277.45 40.534C278.079 37.9027 278.513 35.2289 278.75 32.534C278.75 31.134 277.69 30.454 275.5 30.454C274.395 30.3619 273.289 30.6322 272.35 31.224C271.551 32.0134 271.004 33.023 270.78 34.124C269.936 37.0817 269.268 40.087 268.78 43.124L268.72 43.534V43.644L268.63 43.754C267.745 44.5241 266.639 44.9963 265.47 45.104C264.57 45.104 263.47 44.634 263.47 42.434C263.574 41.2556 263.761 40.086 264.03 38.934C264.323 37.5182 264.527 36.0854 264.64 34.644C264.64 31.804 263.26 30.424 260.42 30.424C258.692 30.5045 257.016 31.0391 255.56 31.974C253.413 33.3476 251.555 35.1276 250.09 37.214C247.956 40.1514 246.249 43.3769 245.02 46.794L244.36 48.524L244.52 46.684C244.66 44.9626 244.894 43.25 245.22 41.554C245.47 40.254 245.83 38.674 246.32 36.724C246.825 35.1305 247.16 33.488 247.32 31.824C247.351 31.6206 247.327 31.4127 247.252 31.2213C247.176 31.03 247.052 30.8619 246.89 30.734C246.331 30.4754 245.714 30.3685 245.1 30.424C243.769 30.3476 242.444 30.6529 241.28 31.304C240.333 31.9868 239.651 32.976 239.35 34.104C237.891 38.7797 237.06 43.629 236.88 48.524V48.654L236.77 48.724C233.84 50.724 230.77 52.864 227.7 55.184L227.19 55.574L229.09 43.854C230.29 37.024 230.87 33.154 230.87 32.034C230.893 31.8126 230.86 31.589 230.772 31.3843C230.685 31.1796 230.546 31.0005 230.37 30.864C229.724 30.5645 229.01 30.4403 228.3 30.504C227.154 30.4186 226.012 30.7139 225.05 31.344C224.224 32.0885 223.662 33.0819 223.45 34.174C222.532 37.6999 221.39 41.1636 220.03 44.544C219.168 46.7758 218.043 48.8973 216.68 50.864C215.6 52.334 214.68 53.044 213.9 53.044C212.77 53.044 212.19 52.044 212.19 50.164C212.224 48.7284 212.367 47.2975 212.62 45.884C212.88 44.194 213.21 42.364 213.62 40.464C213.92 38.994 214.29 37.464 214.72 35.824C215.066 34.629 215.317 33.4086 215.47 32.174C215.491 31.942 215.457 31.7084 215.372 31.4916C215.287 31.2747 215.153 31.0805 214.98 30.924C214.394 30.5839 213.715 30.437 213.04 30.504C211.727 30.3973 210.411 30.6938 209.27 31.354C208.373 32.0807 207.726 33.0704 207.42 34.184C206.44 37.1531 205.685 40.1917 205.16 43.274C204.817 45.4794 204.607 47.7034 204.53 49.934V50.024L204.47 50.094C203.404 51.2916 202.191 52.35 200.86 53.244C199.274 54.2519 197.43 54.7798 195.55 54.764C194.468 54.7777 193.403 54.4891 192.476 53.9309C191.548 53.3727 190.795 52.5669 190.3 51.604C189.07 49.534 188.47 46.134 188.47 41.204C188.47 39.284 188.54 37.354 188.67 35.464V35.304L188.82 35.244C200.28 30.894 206.09 23.004 206.09 11.774C206.213 9.29144 205.529 6.8359 204.14 4.77404C203.55 3.93677 202.759 3.26037 201.84 2.80631C200.922 2.35225 199.904 2.13491 198.88 2.17404C197.293 2.20837 195.731 2.58327 194.301 3.27336C192.871 3.96345 191.605 4.95265 190.59 6.17404C187.85 9.30992 185.717 12.9281 184.3 16.844C182.555 21.4174 181.288 26.1594 180.52 30.994V31.184H180.34C177.861 31.5453 175.364 31.7789 172.86 31.884L165.79 32.234L165.85 31.924C166.801 26.8216 167.349 21.6524 167.49 16.464C167.49 12.214 166.69 9.05404 165.11 7.07404C164.303 6.08119 163.272 5.29231 162.103 4.77116C160.934 4.25001 159.659 4.01121 158.38 4.07404C155.113 4.11548 151.919 5.04538 149.14 6.76404C146.167 8.49433 143.588 10.8277 141.57 13.614C140.565 14.8692 139.977 16.4079 139.89 18.014C139.857 18.7683 140.079 19.5118 140.52 20.124C140.681 20.3657 140.897 20.5647 141.152 20.7041C141.406 20.8435 141.69 20.9189 141.98 20.924C142.344 20.9001 142.696 20.7907 143.009 20.6047C143.321 20.4188 143.586 20.1616 143.78 19.854C147.84 14.444 151.57 11.694 154.87 11.694C155.396 11.6803 155.917 11.7877 156.394 12.008C156.871 12.2282 157.29 12.5554 157.62 12.964C158.3 13.794 158.62 15.294 158.62 17.534C158.434 22.532 157.832 27.5058 156.82 32.404V32.604L152.96 32.744C151.476 32.6943 150.012 33.0953 148.76 33.894C148.334 34.2917 148.004 34.7809 147.794 35.3248C147.585 35.8688 147.501 36.4532 147.55 37.034C147.504 37.4786 147.566 37.9277 147.729 38.3436C147.893 38.7595 148.154 39.1301 148.49 39.424C149.437 39.9934 150.54 40.2489 151.64 40.154L155.26 40.004L155.19 40.324C154.27 44.694 153.02 50.074 151.47 56.324C151.28 57.1177 151.169 57.9284 151.14 58.744C151.14 61.264 152.5 62.484 155.29 62.484C157.86 62.484 159.63 60.484 160.55 56.694C162.16 50.084 163.46 44.284 164.41 39.464V39.264H164.61C165.44 39.264 166.97 39.114 169.5 38.924C172.816 38.6806 176.117 38.2701 179.39 37.694L179.73 37.634V37.964C179.59 39.514 179.52 41.084 179.52 42.634C179.52 48.974 180.84 53.904 183.46 57.284C184.659 58.9123 186.231 60.2289 188.044 61.1234C189.858 62.0178 191.859 62.4639 193.88 62.424C197.7 62.424 201.41 60.834 204.88 57.694L205.15 57.444L205.29 57.784C205.55 58.4535 205.886 59.091 206.29 59.684C206.793 60.5209 207.504 61.2131 208.354 61.6933C209.204 62.1735 210.164 62.4253 211.14 62.424C212.109 62.38 213.059 62.135 213.928 61.7046C214.797 61.2743 215.568 60.6679 216.19 59.924C218.047 57.7924 219.352 55.2377 219.99 52.484L220.49 52.584C220.09 55.694 219.72 58.164 219.39 59.914L219.17 61.584L219.09 61.644C215.028 64.6576 211.221 68.0023 207.71 71.644C205.496 73.9035 203.654 76.4989 202.25 79.334C201.315 81.3786 200.818 83.596 200.79 85.844C200.749 86.8586 200.915 87.871 201.28 88.8186C201.644 89.7663 202.199 90.6292 202.91 91.354C203.647 92.0549 204.517 92.601 205.469 92.9599C206.42 93.3189 207.434 93.4835 208.45 93.444C212.69 93.444 216.24 90.744 219.01 85.444C221.78 80.144 224.11 72.554 225.85 63.084V62.984L236.92 55.544L236.97 55.964C237.071 57.2977 237.347 58.6124 237.79 59.874C237.997 60.6263 238.448 61.2884 239.073 61.7556C239.698 62.2228 240.46 62.4686 241.24 62.454C241.783 62.5132 242.332 62.4545 242.85 62.2819C243.367 62.1093 243.842 61.8269 244.24 61.454C245.104 60.1688 245.681 58.7123 245.93 57.184C246.607 54.4457 247.513 51.7695 248.64 49.184C249.538 47.0181 250.668 44.956 252.01 43.034C253.2 41.414 254.15 40.624 254.94 40.624C255.32 40.624 255.94 40.804 255.94 41.984C255.94 42.294 255.89 42.854 255.8 43.864C255.663 44.5387 255.592 45.2254 255.59 45.914C255.545 46.804 255.683 47.6938 255.996 48.5282C256.31 49.3625 256.791 50.1236 257.41 50.764C258.167 51.3896 259.04 51.8586 259.979 52.1435C260.918 52.4285 261.904 52.5239 262.88 52.424C264.539 52.4264 266.176 52.0538 267.67 51.334L268.03 51.154V51.564C267.958 54.2996 268.65 57.0011 270.03 59.364C271.34 61.364 273.4 62.364 276.32 62.364C279.24 62.364 282.18 60.884 285.32 57.944L285.65 57.634L285.74 58.084C285.858 58.6596 286.022 59.2247 286.23 59.774C286.434 60.5291 286.884 61.1944 287.509 61.6638C288.134 62.1332 288.899 62.3797 289.68 62.364C290.213 62.4151 290.751 62.3523 291.258 62.1799C291.765 62.0075 292.229 61.7294 292.62 61.364C293.492 60.0817 294.072 58.6243 294.32 57.094C294.995 54.3514 295.912 51.6742 297.06 49.094C297.976 46.9479 299.091 44.8923 300.39 42.954C301.55 41.314 302.39 40.544 303.11 40.544C303.57 40.544 304.11 40.784 304.11 41.904C303.978 43.9256 303.677 45.9326 303.21 47.904C302.691 50.1562 302.356 52.4472 302.21 54.754C302.069 56.8064 302.681 58.8399 303.93 60.474C304.588 61.1549 305.388 61.6818 306.273 62.0172C307.158 62.3526 308.107 62.4881 309.05 62.414C311.759 62.4518 314.413 61.652 316.65 60.124C317.62 59.4619 318.542 58.7335 319.41 57.944L319.65 57.724L319.81 58.014C320.082 58.5099 320.4 58.9787 320.76 59.414C321.552 60.3976 322.563 61.1815 323.713 61.7026C324.863 62.2237 326.119 62.4674 327.38 62.414C328.705 62.381 330 62.0225 331.153 61.3702C332.306 60.718 333.28 59.792 333.99 58.674L334.65 57.674L334.03 61.674L333.95 61.734C326.95 67.174 322.07 71.804 319.53 75.504C316.99 79.204 315.72 82.664 315.72 85.864C315.677 86.8897 315.846 87.9134 316.218 88.8703C316.59 89.8273 317.156 90.6968 317.88 91.424C318.617 92.1249 319.487 92.671 320.439 93.03C321.39 93.3889 322.404 93.5535 323.42 93.514C328.25 93.514 332.17 90.104 335.07 83.364C337.658 76.9695 339.562 70.3192 340.75 63.524C341.14 61.524 341.5 59.444 341.82 57.384C341.93 56.714 342.03 56.034 342.13 55.384C342.3 54.154 342.7 51.704 343.44 47.454C344.44 41.044 344.99 37.754 345.15 36.454C345.207 36.0332 345.23 35.6086 345.22 35.184C345.285 34.8354 345.263 34.4764 345.157 34.1382C345.05 33.8 344.863 33.493 344.61 33.244ZM198.54 7.91404C198.83 7.92587 199.111 8.01573 199.354 8.17415C199.597 8.33257 199.793 8.55365 199.92 8.81404C200.329 9.57419 200.519 10.4325 200.47 11.294C200.47 15.7074 199.597 19.314 197.85 22.114C195.901 25.0855 193.052 27.3559 189.72 28.594C190.262 25.0686 191.067 21.5888 192.13 18.184C192.902 15.5635 193.98 13.0428 195.34 10.674C196.46 8.83404 197.53 7.91404 198.54 7.91404ZM209.29 87.034C208.997 87.0575 208.704 86.9989 208.442 86.8646C208.181 86.7304 207.962 86.5258 207.81 86.274C207.489 85.6867 207.333 85.023 207.36 84.354C207.53 82.0227 208.355 79.7867 209.74 77.904C211.897 74.8276 214.483 72.0763 217.42 69.734C216 75.9407 214.577 80.3774 213.15 83.044C211.724 85.7107 210.437 87.0407 209.29 87.034ZM324.18 87.034C323.887 87.0575 323.594 86.9989 323.332 86.8646C323.071 86.7304 322.852 86.5258 322.7 86.274C322.379 85.6867 322.223 85.023 322.25 84.354C322.413 82.0383 323.227 79.8159 324.6 77.944C326.752 74.8615 329.327 72.0976 332.25 69.734C330.917 75.734 329.527 80.124 328.08 82.904C326.634 85.684 325.334 87.0607 324.18 87.034ZM335.25 48.354C334.997 50.362 334.278 52.283 333.15 53.964C332.803 54.5282 332.328 55.003 331.763 55.3503C331.199 55.6977 330.561 55.9079 329.9 55.964C329.414 55.9865 328.929 55.8961 328.483 55.7001C328.037 55.5041 327.643 55.2077 327.33 54.834C326.644 53.8651 326.316 52.6882 326.4 51.504C326.404 48.974 326.907 46.4695 327.88 44.134C328.75 41.9826 330.093 40.0548 331.81 38.494C333.288 37.1302 335.202 36.3362 337.21 36.254H337.53L335.25 48.354Z" fill="#37447E"/>
<path d="M281.8 16.184C280.601 15.3121 279.141 14.8747 277.66 14.944C275.941 14.8858 274.261 15.4625 272.94 16.564C272.345 17.0456 271.865 17.6554 271.538 18.348C271.211 19.0405 271.044 19.7981 271.05 20.564C271.01 21.257 271.118 21.9506 271.366 22.5988C271.615 23.247 271.998 23.835 272.49 24.324C273.726 25.3229 275.296 25.8129 276.88 25.694C278.612 25.7784 280.311 25.199 281.63 24.074C282.23 23.5208 282.701 22.8428 283.01 22.0877C283.32 21.3327 283.46 20.519 283.42 19.704C283.45 19.0307 283.319 18.3599 283.037 17.7476C282.755 17.1353 282.331 16.5992 281.8 16.184Z" fill="#37447E"/>
<path d="M276.88 25.9541C275.247 26.0677 273.631 25.5646 272.35 24.5441C271.827 24.0241 271.42 23.3983 271.158 22.7084C270.896 22.0186 270.784 21.2807 270.83 20.5441C270.821 19.7349 270.996 18.9342 271.343 18.2029C271.689 17.4717 272.198 16.8291 272.83 16.3241C274.2 15.1835 275.939 14.5825 277.72 14.6341C279.257 14.5677 280.77 15.0262 282.01 15.9341C282.566 16.3763 283.008 16.9443 283.3 17.5912C283.592 18.2381 283.726 18.9452 283.69 19.6541C283.729 20.5044 283.581 21.3528 283.258 22.1403C282.935 22.9278 282.445 23.6355 281.82 24.2141C280.457 25.4043 278.689 26.0269 276.88 25.9541ZM277.7 15.2041C276.041 15.15 274.419 15.7049 273.14 16.7641C272.568 17.2225 272.108 17.8061 271.796 18.47C271.484 19.134 271.328 19.8606 271.34 20.5941C271.299 21.2518 271.399 21.9108 271.633 22.5266C271.868 23.1425 272.232 23.7008 272.7 24.1641C273.886 25.0941 275.378 25.5439 276.88 25.4241C278.545 25.5069 280.179 24.9527 281.45 23.8741C282.021 23.3429 282.47 22.694 282.765 21.9722C283.061 21.2505 283.195 20.4732 283.16 19.6941C283.181 19.0681 283.054 18.4461 282.79 17.8781C282.526 17.3102 282.132 16.8121 281.64 16.4241C280.488 15.5825 279.086 15.1528 277.66 15.2041H277.7Z" fill="#37447E"/>
<path d="M408.28 5.42406L405.28 41.5841C405.207 42.4215 404.925 43.227 404.458 43.9262C403.991 44.6253 403.356 45.1955 402.61 45.5841C401.866 45.9785 401.032 46.1746 400.19 46.1536C399.347 46.1326 398.524 45.8951 397.8 45.4641L376.24 32.9041C375.227 32.3552 374.428 31.4818 373.97 30.4241C373.562 29.4096 373.497 28.2891 373.786 27.2343C374.075 26.1795 374.702 25.2485 375.57 24.5841L390.08 14.9441C391.42 13.9441 392.94 13.8141 393.86 14.7041C394.06 14.9089 394.208 15.1578 394.293 15.4306C394.378 15.7033 394.398 15.9923 394.35 16.2741C394.287 16.7592 394.117 17.2242 393.852 17.6358C393.588 18.0473 393.235 18.3951 392.82 18.6541L381.31 28.3241L399.01 38.6041L401.62 6.91406L356.49 16.7341C359.1 18.7341 367.49 25.5141 368.28 31.2541C369.16 37.2541 365.84 43.8341 358.41 50.9641C353.136 55.8447 347.341 60.1305 341.13 63.7441L340.64 64.0341L340.75 63.4741C341.14 61.4741 341.5 59.3941 341.82 57.3341V57.2241L341.92 57.1541C347.92 53.2841 358.32 44.9841 360.55 32.8641C360.702 32.0502 360.677 31.2134 360.479 30.4098C360.281 29.6061 359.913 28.854 359.4 28.2041C356.79 25.1401 353.941 22.2878 350.88 19.6741C349.88 18.7841 348.39 16.8441 348.64 15.1841C348.803 14.3945 349.193 13.6695 349.761 13.0977C350.329 12.5259 351.052 12.132 351.84 11.9641L402.28 0.104059C403.039 -0.0532624 403.825 -0.0319517 404.574 0.166307C405.323 0.364566 406.016 0.734341 406.598 1.24643C407.18 1.75852 407.635 2.3989 407.927 3.11698C408.219 3.83507 408.34 4.61119 408.28 5.38406V5.42406Z" fill="#FFC93C"/>
<path d="M358.41 50.9641C364.64 44.9641 367.97 39.3541 368.41 34.1841L360.56 30.5841C360.711 31.3367 360.711 32.1115 360.56 32.8641C358.33 44.9841 347.93 53.2841 341.93 57.1541L341.84 57.2141C341.84 57.2141 341.84 57.2941 341.84 57.3341V57.2241L333.99 61.7441C326.99 67.1841 322.11 71.8141 319.57 75.5141C317.774 77.966 316.539 80.7823 315.95 83.7641H322.28C322.579 81.6701 323.375 79.678 324.6 77.9541C326.752 74.8716 329.327 72.1077 332.25 69.7441L340.64 64.0441L341.13 63.7541C347.342 60.1374 353.137 55.8482 358.41 50.9641Z" fill="url(#paint0_linear)"/>
<defs>
<linearGradient id="paint0_linear" x1="309.82" y1="82.6641" x2="354.05" y2="46.9641" gradientUnits="userSpaceOnUse">
<stop offset="0.17" stop-color="#3C457C"/>
<stop offset="0.35" stop-color="#615E70"/>
<stop offset="0.74" stop-color="#BF9E51"/>
<stop offset="1" stop-color="#FFC93C"/>
</linearGradient>
</defs>
</svg>
