<svg width="255" height="253" viewBox="0 0 255 253" fill="none" xmlns="http://www.w3.org/2000/svg">
<path fill-rule="evenodd" clip-rule="evenodd" d="M231.165 105.656C235.434 127.624 216.205 146.269 205.735 166.076C196.314 183.899 189.404 203.281 173.2 215.31C155.887 228.163 134.717 235.322 113.155 234.805C90.6513 234.265 67.8127 227.579 51.2547 212.386C34.9394 197.417 29.1726 175.052 24.4699 153.434C19.8261 132.088 17.6346 110.241 24.52 89.4914C31.8366 67.4422 43.1609 44.3559 64.063 34.1182C84.4841 24.1161 108.25 33.0005 130.516 37.5749C150.087 41.5955 168.384 47.7636 184.916 58.9465C203.53 71.5371 226.884 83.6246 231.165 105.656Z" fill="#BAC3E5"/>
</svg>
