<svg width="323" height="398" viewBox="0 0 323 398" fill="none" xmlns="http://www.w3.org/2000/svg">
<path fill-rule="evenodd" clip-rule="evenodd" d="M-221.183 201.27C-219.727 152.987 -181.07 113.698 -140.434 78.8192C-97.9127 42.3208 -50.9672 2.01101 10.7456 2.19357C72.7301 2.37694 119.998 42.9314 162.889 79.7165C204.991 115.826 247.264 155.906 248.076 205.738C248.9 256.345 211.93 300.935 167.057 335.587C123.17 369.476 67.4554 393.055 7.03507 391.873C-52.7291 390.703 -106.059 364.444 -147.993 329.422C-189.922 294.404 -222.659 250.204 -221.183 201.27Z" fill="#E7ECFF"/>
<path fill-rule="evenodd" clip-rule="evenodd" d="M299.165 250.656C303.434 272.624 284.205 291.269 273.735 311.076C264.314 328.899 257.404 348.281 241.2 360.31C223.887 373.163 202.717 380.322 181.155 379.805C158.651 379.266 135.813 372.579 119.255 357.386C102.939 342.417 97.1726 320.052 92.4699 298.434C87.8261 277.088 85.6346 255.241 92.52 234.491C99.8366 212.442 111.161 189.356 132.063 179.118C152.484 169.116 176.25 178.001 198.516 182.575C218.087 186.596 236.384 192.764 252.916 203.946C271.53 216.537 294.884 228.625 299.165 250.656Z" fill="#BAC3E5"/>
</svg>
