<svg width="739" height="1112" viewBox="0 0 739 1112" fill="none" xmlns="http://www.w3.org/2000/svg">
<path opacity="0.5" d="M257.66 37.6942C160.585 138.217 145.542 328.298 79.796 468.527C56.9093 517.322 27.3367 560.992 11.9075 615.123C-23.5154 739.026 25.2366 879.572 90.4893 977.981C121.605 1024.93 157.949 1067.94 201.922 1087.72C235.738 1102.94 271.997 1103.57 307.591 1103.97L931.188 1111.9C1000.81 1112.77 1078.17 1109.62 1128.23 1043.21C1162.73 997.478 1176.75 930.692 1188.64 866.944C1203.26 788.613 1216.5 703.546 1193.76 628.94C1167.79 543.582 1102.11 495.21 1061.31 421.555C995.09 302.223 996.612 121.731 912.287 26.4664C872.921 -17.9959 820.976 -35.4321 770.36 -44.1502C674.935 -60.6089 584.545 -29.5408 490.834 -33.8734C410.731 -37.572 324.113 -31.1259 257.66 37.6942Z" fill="#E7ECFF"/>
</svg>
