<svg width="160" height="26" viewBox="0 0 160 26" fill="none" xmlns="http://www.w3.org/2000/svg">
<rect width="160" height="26" rx="2" fill="#111B47"/>
<path d="M36.8926 13.3848H33.459V17H31.9766V8.46875H37.3965V9.66406H33.459V12.2012H36.8926V13.3848ZM39.9512 17H38.5273V10.6602H39.9512V17ZM38.4395 9.01367C38.4395 8.79492 38.5078 8.61328 38.6445 8.46875C38.7852 8.32422 38.9844 8.25195 39.2422 8.25195C39.5 8.25195 39.6992 8.32422 39.8398 8.46875C39.9805 8.61328 40.0508 8.79492 40.0508 9.01367C40.0508 9.22852 39.9805 9.4082 39.8398 9.55273C39.6992 9.69336 39.5 9.76367 39.2422 9.76367C38.9844 9.76367 38.7852 9.69336 38.6445 9.55273C38.5078 9.4082 38.4395 9.22852 38.4395 9.01367ZM43.0215 17H41.5977V8H43.0215V17ZM46.0918 17H44.668V8H46.0918V17ZM57.582 12.957C57.582 13.793 57.4375 14.5273 57.1484 15.1602C56.8594 15.7891 56.4453 16.2734 55.9062 16.6133C55.3711 16.9492 54.7539 17.1172 54.0547 17.1172C53.3633 17.1172 52.7461 16.9492 52.2031 16.6133C51.6641 16.2734 51.2461 15.791 50.9492 15.166C50.6562 14.541 50.5078 13.8203 50.5039 13.0039V12.5234C50.5039 11.6914 50.6504 10.957 50.9434 10.3203C51.2402 9.68359 51.6562 9.19727 52.1914 8.86133C52.7305 8.52148 53.3477 8.35156 54.043 8.35156C54.7383 8.35156 55.3535 8.51953 55.8887 8.85547C56.4277 9.1875 56.8438 9.66797 57.1367 10.2969C57.4297 10.9219 57.5781 11.6504 57.582 12.4824V12.957ZM56.0996 12.5117C56.0996 11.5664 55.9199 10.8418 55.5605 10.3379C55.2051 9.83398 54.6992 9.58203 54.043 9.58203C53.4023 9.58203 52.9004 9.83398 52.5371 10.3379C52.1777 10.8379 51.9941 11.5469 51.9863 12.4648V12.957C51.9863 13.8945 52.168 14.6191 52.5312 15.1309C52.8984 15.6426 53.4062 15.8984 54.0547 15.8984C54.7109 15.8984 55.2148 15.6484 55.5664 15.1484C55.9219 14.6484 56.0996 13.918 56.0996 12.957V12.5117ZM62.7617 16.3789C62.3438 16.8711 61.75 17.1172 60.9805 17.1172C60.293 17.1172 59.7715 16.916 59.416 16.5137C59.0645 16.1113 58.8887 15.5293 58.8887 14.7676V10.6602H60.3125V14.75C60.3125 15.5547 60.6465 15.957 61.3145 15.957C62.0059 15.957 62.4727 15.709 62.7148 15.2129V10.6602H64.1387V17H62.7969L62.7617 16.3789ZM67.373 9.11914V10.6602H68.4922V11.7148H67.373V15.2539C67.373 15.4961 67.4199 15.6719 67.5137 15.7812C67.6113 15.8867 67.7832 15.9395 68.0293 15.9395C68.1934 15.9395 68.3594 15.9199 68.5273 15.8809V16.9824C68.2031 17.0723 67.8906 17.1172 67.5898 17.1172C66.4961 17.1172 65.9492 16.5137 65.9492 15.3066V11.7148H64.9062V10.6602H65.9492V9.11914H67.373ZM78.5234 9.66406H75.8633V17H74.3926V9.66406H71.7559V8.46875H78.5234V9.66406ZM80.9141 11.3516C81.3789 10.8125 81.9668 10.543 82.6777 10.543C84.0293 10.543 84.7148 11.3145 84.7344 12.8574V17H83.3105V12.9102C83.3105 12.4727 83.2148 12.1641 83.0234 11.9844C82.8359 11.8008 82.5586 11.709 82.1914 11.709C81.6211 11.709 81.1953 11.9629 80.9141 12.4707V17H79.4902V8H80.9141V11.3516ZM87.6934 17H86.2695V10.6602H87.6934V17ZM86.1816 9.01367C86.1816 8.79492 86.25 8.61328 86.3867 8.46875C86.5273 8.32422 86.7266 8.25195 86.9844 8.25195C87.2422 8.25195 87.4414 8.32422 87.582 8.46875C87.7227 8.61328 87.793 8.79492 87.793 9.01367C87.793 9.22852 87.7227 9.4082 87.582 9.55273C87.4414 9.69336 87.2422 9.76367 86.9844 9.76367C86.7266 9.76367 86.5273 9.69336 86.3867 9.55273C86.25 9.4082 86.1816 9.22852 86.1816 9.01367ZM92.8027 15.2773C92.8027 15.0234 92.6973 14.8301 92.4863 14.6973C92.2793 14.5645 91.9336 14.4473 91.4492 14.3457C90.9648 14.2441 90.5605 14.1152 90.2363 13.959C89.5254 13.6152 89.1699 13.1172 89.1699 12.4648C89.1699 11.918 89.4004 11.4609 89.8613 11.0938C90.3223 10.7266 90.9082 10.543 91.6191 10.543C92.377 10.543 92.9883 10.7305 93.4531 11.1055C93.9219 11.4805 94.1562 11.9668 94.1562 12.5645H92.7324C92.7324 12.291 92.6309 12.0645 92.4277 11.8848C92.2246 11.7012 91.9551 11.6094 91.6191 11.6094C91.3066 11.6094 91.0508 11.6816 90.8516 11.8262C90.6562 11.9707 90.5586 12.1641 90.5586 12.4062C90.5586 12.625 90.6504 12.7949 90.834 12.916C91.0176 13.0371 91.3887 13.1602 91.9473 13.2852C92.5059 13.4062 92.9434 13.5527 93.2598 13.7246C93.5801 13.8926 93.8164 14.0957 93.9688 14.334C94.125 14.5723 94.2031 14.8613 94.2031 15.2012C94.2031 15.7715 93.9668 16.2344 93.4941 16.5898C93.0215 16.9414 92.4023 17.1172 91.6367 17.1172C91.1172 17.1172 90.6543 17.0234 90.248 16.8359C89.8418 16.6484 89.5254 16.3906 89.2988 16.0625C89.0723 15.7344 88.959 15.3809 88.959 15.002H90.3418C90.3613 15.3379 90.4883 15.5977 90.7227 15.7812C90.957 15.9609 91.2676 16.0508 91.6543 16.0508C92.0293 16.0508 92.3145 15.9805 92.5098 15.8398C92.7051 15.6953 92.8027 15.5078 92.8027 15.2773ZM103.49 13.3848H100.057V17H98.5742V8.46875H103.994V9.66406H100.057V12.2012H103.49V13.3848ZM104.639 13.7715C104.639 13.1504 104.762 12.5918 105.008 12.0957C105.254 11.5957 105.6 11.2129 106.045 10.9473C106.49 10.6777 107.002 10.543 107.58 10.543C108.436 10.543 109.129 10.8184 109.66 11.3691C110.195 11.9199 110.484 12.6504 110.527 13.5605L110.533 13.8945C110.533 14.5195 110.412 15.0781 110.17 15.5703C109.932 16.0625 109.588 16.4434 109.139 16.7129C108.693 16.9824 108.178 17.1172 107.592 17.1172C106.697 17.1172 105.98 16.8203 105.441 16.2266C104.906 15.6289 104.639 14.834 104.639 13.8418V13.7715ZM106.062 13.8945C106.062 14.5469 106.197 15.0586 106.467 15.4297C106.736 15.7969 107.111 15.9805 107.592 15.9805C108.072 15.9805 108.445 15.793 108.711 15.418C108.98 15.043 109.115 14.4941 109.115 13.7715C109.115 13.1309 108.977 12.623 108.699 12.248C108.426 11.873 108.053 11.6855 107.58 11.6855C107.115 11.6855 106.746 11.8711 106.473 12.2422C106.199 12.6094 106.062 13.1602 106.062 13.8945ZM115.057 11.9609C114.869 11.9297 114.676 11.9141 114.477 11.9141C113.824 11.9141 113.385 12.1641 113.158 12.6641V17H111.734V10.6602H113.094L113.129 11.3691C113.473 10.8184 113.949 10.543 114.559 10.543C114.762 10.543 114.93 10.5703 115.062 10.625L115.057 11.9609ZM117.295 10.6602L117.336 11.3223C117.781 10.8027 118.391 10.543 119.164 10.543C120.012 10.543 120.592 10.8672 120.904 11.5156C121.365 10.8672 122.014 10.543 122.85 10.543C123.549 10.543 124.068 10.7363 124.408 11.123C124.752 11.5098 124.928 12.0801 124.936 12.834V17H123.512V12.875C123.512 12.4727 123.424 12.1777 123.248 11.9902C123.072 11.8027 122.781 11.709 122.375 11.709C122.051 11.709 121.785 11.7969 121.578 11.9727C121.375 12.1445 121.232 12.3711 121.15 12.6523L121.156 17H119.732V12.8281C119.713 12.082 119.332 11.709 118.59 11.709C118.02 11.709 117.615 11.9414 117.377 12.4062V17H115.953V10.6602H117.295ZM127.906 14.4863H126.682L126.547 8.46875H128.047L127.906 14.4863ZM126.506 16.3262C126.506 16.1035 126.578 15.9199 126.723 15.7754C126.867 15.627 127.064 15.5527 127.314 15.5527C127.564 15.5527 127.762 15.627 127.906 15.7754C128.051 15.9199 128.123 16.1035 128.123 16.3262C128.123 16.541 128.053 16.7207 127.912 16.8652C127.771 17.0098 127.572 17.082 127.314 17.082C127.057 17.082 126.857 17.0098 126.717 16.8652C126.576 16.7207 126.506 16.541 126.506 16.3262Z" fill="white"/>
</svg>
