<svg width="551" height="781" viewBox="0 0 551 781" fill="none" xmlns="http://www.w3.org/2000/svg">
<path opacity="0.5" d="M372.196 60.6145C280.132 100.261 186.409 229.355 118.851 293.223C95.3347 315.446 66.3471 334.218 48.961 360.095C9.0725 419.312 41.5228 497.413 91.4298 555.921C115.226 583.831 143.875 610.363 180.865 625.919C396.252 697.779 528.872 610.467 553.578 595.043C556.06 593.493 558.532 592.037 560.937 590.371L592.752 568.335L627.325 721.008L816.248 727.932C877.012 736.935 944.826 744.828 993.353 716.903C1026.8 697.68 1043.86 665.137 1058.85 633.891C1077.27 595.498 1094.98 553.48 1080.5 512.408C1063.97 465.422 1010.08 432.533 979.744 389.73C930.504 320.368 944.858 227.951 878.062 168.712C846.878 141.062 802.754 125.733 759.162 115.041C676.981 94.8706 732.408 169.008 650.849 155.27C570.03 58.5712 435.219 33.4708 372.196 60.6145Z" fill="#E7ECFF"/>
</svg>
