<svg width="160" height="26" viewBox="0 0 160 26" fill="none" xmlns="http://www.w3.org/2000/svg">
<rect width="160" height="26" rx="2" fill="#111B47"/>
<path d="M44.873 14.8027C44.873 14.4277 44.7402 14.1387 44.4746 13.9355C44.2129 13.7324 43.7383 13.5273 43.0508 13.3203C42.3633 13.1133 41.8164 12.8828 41.4102 12.6289C40.6328 12.1406 40.2441 11.5039 40.2441 10.7188C40.2441 10.0312 40.5234 9.46484 41.082 9.01953C41.6445 8.57422 42.373 8.35156 43.2676 8.35156C43.8613 8.35156 44.3906 8.46094 44.8555 8.67969C45.3203 8.89844 45.6855 9.21094 45.9512 9.61719C46.2168 10.0195 46.3496 10.4668 46.3496 10.959H44.873C44.873 10.5137 44.7324 10.166 44.4512 9.91602C44.1738 9.66211 43.7754 9.53516 43.2559 9.53516C42.7715 9.53516 42.3945 9.63867 42.125 9.8457C41.8594 10.0527 41.7266 10.3418 41.7266 10.7129C41.7266 11.0254 41.8711 11.2871 42.1602 11.498C42.4492 11.7051 42.9258 11.9082 43.5898 12.1074C44.2539 12.3027 44.7871 12.5273 45.1895 12.7812C45.5918 13.0312 45.8867 13.3203 46.0742 13.6484C46.2617 13.9727 46.3555 14.3535 46.3555 14.791C46.3555 15.502 46.082 16.0684 45.5352 16.4902C44.9922 16.9082 44.2539 17.1172 43.3203 17.1172C42.7031 17.1172 42.1348 17.0039 41.6152 16.7773C41.0996 16.5469 40.6973 16.2305 40.4082 15.8281C40.123 15.4258 39.9805 14.957 39.9805 14.4219H41.4629C41.4629 14.9062 41.623 15.2812 41.9434 15.5469C42.2637 15.8125 42.7227 15.9453 43.3203 15.9453C43.8359 15.9453 44.2227 15.8418 44.4805 15.6348C44.7422 15.4238 44.873 15.1465 44.873 14.8027ZM51.3594 16.3789C50.9414 16.8711 50.3477 17.1172 49.5781 17.1172C48.8906 17.1172 48.3691 16.916 48.0137 16.5137C47.6621 16.1113 47.4863 15.5293 47.4863 14.7676V10.6602H48.9102V14.75C48.9102 15.5547 49.2441 15.957 49.9121 15.957C50.6035 15.957 51.0703 15.709 51.3125 15.2129V10.6602H52.7363V17H51.3945L51.3594 16.3789ZM59.75 13.8945C59.75 14.8789 59.5293 15.6621 59.0879 16.2441C58.6504 16.8262 58.0469 17.1172 57.2773 17.1172C56.5352 17.1172 55.957 16.8496 55.543 16.3145L55.4727 17H54.1836V8H55.6074V11.2695C56.0176 10.7852 56.5703 10.543 57.2656 10.543C58.0391 10.543 58.6465 10.8301 59.0879 11.4043C59.5293 11.9785 59.75 12.7812 59.75 13.8125V13.8945ZM58.3262 13.7715C58.3262 13.084 58.2051 12.5684 57.9629 12.2246C57.7207 11.8809 57.3691 11.709 56.9082 11.709C56.291 11.709 55.8574 11.9785 55.6074 12.5176V15.1309C55.8613 15.6816 56.2988 15.957 56.9199 15.957C57.3652 15.957 57.709 15.791 57.9512 15.459C58.1934 15.127 58.3184 14.625 58.3262 13.9531V13.7715ZM64.502 15.2773C64.502 15.0234 64.3965 14.8301 64.1855 14.6973C63.9785 14.5645 63.6328 14.4473 63.1484 14.3457C62.6641 14.2441 62.2598 14.1152 61.9355 13.959C61.2246 13.6152 60.8691 13.1172 60.8691 12.4648C60.8691 11.918 61.0996 11.4609 61.5605 11.0938C62.0215 10.7266 62.6074 10.543 63.3184 10.543C64.0762 10.543 64.6875 10.7305 65.1523 11.1055C65.6211 11.4805 65.8555 11.9668 65.8555 12.5645H64.4316C64.4316 12.291 64.3301 12.0645 64.127 11.8848C63.9238 11.7012 63.6543 11.6094 63.3184 11.6094C63.0059 11.6094 62.75 11.6816 62.5508 11.8262C62.3555 11.9707 62.2578 12.1641 62.2578 12.4062C62.2578 12.625 62.3496 12.7949 62.5332 12.916C62.7168 13.0371 63.0879 13.1602 63.6465 13.2852C64.2051 13.4062 64.6426 13.5527 64.959 13.7246C65.2793 13.8926 65.5156 14.0957 65.668 14.334C65.8242 14.5723 65.9023 14.8613 65.9023 15.2012C65.9023 15.7715 65.666 16.2344 65.1934 16.5898C64.7207 16.9414 64.1016 17.1172 63.3359 17.1172C62.8164 17.1172 62.3535 17.0234 61.9473 16.8359C61.541 16.6484 61.2246 16.3906 60.998 16.0625C60.7715 15.7344 60.6582 15.3809 60.6582 15.002H62.041C62.0605 15.3379 62.1875 15.5977 62.4219 15.7812C62.6562 15.9609 62.9668 16.0508 63.3535 16.0508C63.7285 16.0508 64.0137 15.9805 64.209 15.8398C64.4043 15.6953 64.502 15.5078 64.502 15.2773ZM69.752 15.9805C70.1074 15.9805 70.4023 15.877 70.6367 15.6699C70.8711 15.4629 70.9961 15.207 71.0117 14.9023H72.3535C72.3379 15.2969 72.2148 15.666 71.9844 16.0098C71.7539 16.3496 71.4414 16.6191 71.0469 16.8184C70.6523 17.0176 70.2266 17.1172 69.7695 17.1172C68.8828 17.1172 68.1797 16.8301 67.6602 16.2559C67.1406 15.6816 66.8809 14.8887 66.8809 13.877V13.7305C66.8809 12.7656 67.1387 11.9941 67.6543 11.416C68.1699 10.834 68.873 10.543 69.7637 10.543C70.5176 10.543 71.1309 10.7637 71.6035 11.2051C72.0801 11.6426 72.3301 12.2188 72.3535 12.9336H71.0117C70.9961 12.5703 70.8711 12.2715 70.6367 12.0371C70.4062 11.8027 70.1113 11.6855 69.752 11.6855C69.291 11.6855 68.9355 11.8535 68.6855 12.1895C68.4355 12.5215 68.3086 13.0273 68.3047 13.707V13.9355C68.3047 14.623 68.4277 15.1367 68.6738 15.4766C68.9238 15.8125 69.2832 15.9805 69.752 15.9805ZM76.748 11.9609C76.5605 11.9297 76.3672 11.9141 76.168 11.9141C75.5156 11.9141 75.0762 12.1641 74.8496 12.6641V17H73.4258V10.6602H74.7852L74.8203 11.3691C75.1641 10.8184 75.6406 10.543 76.25 10.543C76.4531 10.543 76.6211 10.5703 76.7539 10.625L76.748 11.9609ZM79.1621 17H77.7383V10.6602H79.1621V17ZM77.6504 9.01367C77.6504 8.79492 77.7188 8.61328 77.8555 8.46875C77.9961 8.32422 78.1953 8.25195 78.4531 8.25195C78.7109 8.25195 78.9102 8.32422 79.0508 8.46875C79.1914 8.61328 79.2617 8.79492 79.2617 9.01367C79.2617 9.22852 79.1914 9.4082 79.0508 9.55273C78.9102 9.69336 78.7109 9.76367 78.4531 9.76367C78.1953 9.76367 77.9961 9.69336 77.8555 9.55273C77.7188 9.4082 77.6504 9.22852 77.6504 9.01367ZM86.2812 13.8945C86.2812 14.8789 86.0605 15.6621 85.6191 16.2441C85.1816 16.8262 84.5781 17.1172 83.8086 17.1172C83.0664 17.1172 82.4883 16.8496 82.0742 16.3145L82.0039 17H80.7148V8H82.1387V11.2695C82.5488 10.7852 83.1016 10.543 83.7969 10.543C84.5703 10.543 85.1777 10.8301 85.6191 11.4043C86.0605 11.9785 86.2812 12.7812 86.2812 13.8125V13.8945ZM84.8574 13.7715C84.8574 13.084 84.7363 12.5684 84.4941 12.2246C84.252 11.8809 83.9004 11.709 83.4395 11.709C82.8223 11.709 82.3887 11.9785 82.1387 12.5176V15.1309C82.3926 15.6816 82.8301 15.957 83.4512 15.957C83.8965 15.957 84.2402 15.791 84.4824 15.459C84.7246 15.127 84.8496 14.625 84.8574 13.9531V13.7715ZM90.2715 17.1172C89.3691 17.1172 88.6367 16.834 88.0742 16.2676C87.5156 15.6973 87.2363 14.9395 87.2363 13.9941V13.8184C87.2363 13.1855 87.3574 12.6211 87.5996 12.125C87.8457 11.625 88.1895 11.2363 88.6309 10.959C89.0723 10.6816 89.5645 10.543 90.1074 10.543C90.9707 10.543 91.6367 10.8184 92.1055 11.3691C92.5781 11.9199 92.8145 12.6992 92.8145 13.707V14.2812H88.6719C88.7148 14.8047 88.8887 15.2188 89.1934 15.5234C89.502 15.8281 89.8887 15.9805 90.3535 15.9805C91.0059 15.9805 91.5371 15.7168 91.9473 15.1895L92.7148 15.9219C92.4609 16.3008 92.1211 16.5957 91.6953 16.8066C91.2734 17.0137 90.7988 17.1172 90.2715 17.1172ZM90.1016 11.6855C89.7109 11.6855 89.3945 11.8223 89.1523 12.0957C88.9141 12.3691 88.7617 12.75 88.6953 13.2383H91.4082V13.1328C91.377 12.6562 91.25 12.2969 91.0273 12.0547C90.8047 11.8086 90.4961 11.6855 90.1016 11.6855ZM103.818 17H102.336L98.5332 10.9473V17H97.0508V8.46875H98.5332L102.348 14.5449V8.46875H103.818V17ZM105.166 13.7715C105.166 13.1504 105.289 12.5918 105.535 12.0957C105.781 11.5957 106.127 11.2129 106.572 10.9473C107.018 10.6777 107.529 10.543 108.107 10.543C108.963 10.543 109.656 10.8184 110.188 11.3691C110.723 11.9199 111.012 12.6504 111.055 13.5605L111.061 13.8945C111.061 14.5195 110.939 15.0781 110.697 15.5703C110.459 16.0625 110.115 16.4434 109.666 16.7129C109.221 16.9824 108.705 17.1172 108.119 17.1172C107.225 17.1172 106.508 16.8203 105.969 16.2266C105.434 15.6289 105.166 14.834 105.166 13.8418V13.7715ZM106.59 13.8945C106.59 14.5469 106.725 15.0586 106.994 15.4297C107.264 15.7969 107.639 15.9805 108.119 15.9805C108.6 15.9805 108.973 15.793 109.238 15.418C109.508 15.043 109.643 14.4941 109.643 13.7715C109.643 13.1309 109.504 12.623 109.227 12.248C108.953 11.873 108.58 11.6855 108.107 11.6855C107.643 11.6855 107.273 11.8711 107 12.2422C106.727 12.6094 106.59 13.1602 106.59 13.8945ZM117.834 15.0371L118.842 10.6602H120.23L118.502 17H117.33L115.971 12.6465L114.635 17H113.463L111.729 10.6602H113.117L114.143 14.9902L115.443 10.6602H116.516L117.834 15.0371Z" fill="white"/>
</svg>
